<svg xmlns="http://www.w3.org/2000/svg" xmlns:xlink="http://www.w3.org/1999/xlink" xmlns:lucid="lucid" width="1860.24" height="1141.23"><g transform="translate(-5.079518072289034 -60)" lucid:page-tab-id="0_0"><path d="M0 0h1870.4v1323.2H0z" fill="#fff"/><path d="M845.32 86c0-3.3 2.7-6 6-6h148c3.3 0 6 2.7 6 6v28c0 3.3-2.7 6-6 6h-148c-3.3 0-6-2.7-6-6z" stroke="#5e5e5e" stroke-width="3" fill="#a3d977"/><use xlink:href="#a" transform="matrix(1,0,0,1,857.3204819277108,92) translate(1.4814814814815236 12.666666666666664)"/><use xlink:href="#b" transform="matrix(1,0,0,1,857.3204819277108,92) translate(46.51851851851854 12.666666666666664)"/><use xlink:href="#c" transform="matrix(1,0,0,1,857.3204819277108,92) translate(67.22222222222223 12.666666666666664)"/><path d="M920.52 183.6c2.65-2 6.95-2 9.6 0l70.4 52.8c2.65 2 2.65 5.2 0 7.2l-70.4 52.8c-2.65 2-6.95 2-9.6 0l-70.4-52.8c-2.65-2-2.65-5.2 0-7.2z" stroke="#5e5e5e" stroke-width="3" fill="#7ab648"/><use xlink:href="#d" transform="matrix(1,0,0,1,850.3204819277108,185) translate(42.46796296296298 34.729166666666664)"/><use xlink:href="#e" transform="matrix(1,0,0,1,850.3204819277108,185) translate(70.57907407407407 34.729166666666664)"/><use xlink:href="#f" transform="matrix(1,0,0,1,850.3204819277108,185) translate(26.930925925925955 50.729166666666664)"/><use xlink:href="#g" transform="matrix(1,0,0,1,850.3204819277108,185) translate(84.63462962962963 50.729166666666664)"/><use xlink:href="#h" transform="matrix(1,0,0,1,850.3204819277108,185) translate(95.74574074074073 50.729166666666664)"/><use xlink:href="#i" transform="matrix(1,0,0,1,850.3204819277108,185) translate(24.579074074074097 66.72916666666666)"/><use xlink:href="#j" transform="matrix(1,0,0,1,850.3204819277108,185) translate(57.31981481481482 66.72916666666666)"/><use xlink:href="#k" transform="matrix(1,0,0,1,850.3204819277108,185) translate(118.0235185185185 66.72916666666666)"/><use xlink:href="#l" transform="matrix(1,0,0,1,850.3204819277108,185) translate(45.079074074074086 82.72916666666666)"/><path d="M925.32 122.5v39.67" stroke="#5e5e5e" stroke-width="2" fill="none"/><path d="M926.32 122.53h-2v-1.03h2z" fill="#5e5e5e"/><path d="M925.32 177.43l-4.63-14.26h9.26z" stroke="#5e5e5e" stroke-width="2" fill="#5e5e5e"/><path d="M1140.52 318c0-3.3 2.7-6 6-6h148c3.3 0 6 2.7 6 6v108c0 3.3-2.7 6-6 6h-148c-3.3 0-6-2.7-6-6z" stroke="#5e5e5e" stroke-width="3" fill="#c7e8ac"/><use xlink:href="#m" transform="matrix(1,0,0,1,1152.5204819276642,324) translate(5.092592592592624 10.666666666666664)"/><use xlink:href="#n" transform="matrix(1,0,0,1,1152.5204819276642,324) translate(50.240740740740755 10.666666666666664)"/><use xlink:href="#o" transform="matrix(1,0,0,1,1152.5204819276642,324) translate(64.27777777777779 10.666666666666664)"/><use xlink:href="#p" transform="matrix(1,0,0,1,1152.5204819276642,324) translate(90.9074074074074 10.666666666666664)"/><use xlink:href="#q" transform="matrix(1,0,0,1,1152.5204819276642,324) translate(116.83333333333331 10.666666666666664)"/><use xlink:href="#r" transform="matrix(1,0,0,1,1152.5204819276642,324) translate(3.648148148148181 26.66666666666666)"/><use xlink:href="#f" transform="matrix(1,0,0,1,1152.5204819276642,324) translate(44.31481481481483 26.66666666666666)"/><use xlink:href="#s" transform="matrix(1,0,0,1,1152.5204819276642,324) translate(102.0185185185185 26.66666666666666)"/><use xlink:href="#t" transform="matrix(1,0,0,1,1152.5204819276642,324) translate(0.6666666666666998 42.66666666666666)"/><use xlink:href="#u" transform="matrix(1,0,0,1,1152.5204819276642,324) translate(21.370370370370395 42.66666666666666)"/><use xlink:href="#v" transform="matrix(1,0,0,1,1152.5204819276642,324) translate(54.66666666666668 42.66666666666666)"/><use xlink:href="#g" transform="matrix(1,0,0,1,1152.5204819276642,324) translate(2.0555555555555856 58.66666666666665)"/><use xlink:href="#w" transform="matrix(1,0,0,1,1152.5204819276642,324) translate(13.166666666666691 58.66666666666665)"/><use xlink:href="#i" transform="matrix(1,0,0,1,1152.5204819276642,324) translate(44.20370370370372 58.66666666666665)"/><use xlink:href="#x" transform="matrix(1,0,0,1,1152.5204819276642,324) translate(76.94444444444444 58.66666666666665)"/><use xlink:href="#y" transform="matrix(1,0,0,1,1152.5204819276642,324) translate(21.018518518518533 74.66666666666666)"/><use xlink:href="#z" transform="matrix(1,0,0,1,1152.5204819276642,324) translate(39.53703703703704 74.66666666666666)"/><use xlink:href="#A" transform="matrix(1,0,0,1,1152.5204819276642,324) translate(53.574074074074076 74.66666666666666)"/><use xlink:href="#B" transform="matrix(1,0,0,1,1152.5204819276642,324) translate(100.16666666666666 74.66666666666666)"/><use xlink:href="#C" transform="matrix(1,0,0,1,1152.5204819276642,324) translate(28.425925925925945 90.66666666666666)"/><path d="M1215.72 507.6c2.65-2 6.95-2 9.6 0l70.4 52.8c2.65 2 2.65 5.2 0 7.2l-70.4 52.8c-2.65 2-6.95 2-9.6 0l-70.4-52.8c-2.65-2-2.65-5.2 0-7.2z" stroke="#5e5e5e" stroke-width="3" fill="#7ab648"/><use xlink:href="#D" transform="matrix(1,0,0,1,1145.5204819276642,509) translate(41.33833333333335 41.604166666666664)"/><use xlink:href="#o" transform="matrix(1,0,0,1,1145.5204819276642,509) translate(67.96796296296297 41.604166666666664)"/><use xlink:href="#q" transform="matrix(1,0,0,1,1145.5204819276642,509) translate(94.59759259259259 41.604166666666664)"/><use xlink:href="#E" transform="matrix(1,0,0,1,1145.5204819276642,509) translate(45.3938888888889 57.604166666666664)"/><use xlink:href="#F" transform="matrix(1,0,0,1,1145.5204819276642,509) translate(34.301296296296314 73.60416666666666)"/><path d="M1220.52 434.5v51.67" stroke="#5e5e5e" stroke-width="2" fill="none"/><path d="M1221.52 434.53h-2v-1.03h2z" fill="#5e5e5e"/><path d="M1220.52 501.43l-4.63-14.26h9.26z" stroke="#5e5e5e" stroke-width="2" fill="#5e5e5e"/><path d="M1405.32 534c0-3.3 2.7-6 6-6h148c3.3 0 6 2.7 6 6v60c0 3.3-2.7 6-6 6h-148c-3.3 0-6-2.7-6-6z" stroke="#5e5e5e" stroke-width="3" fill="#c7e8ac"/><use xlink:href="#G" transform="matrix(1,0,0,1,1417.3204819277107,540) translate(16.98148148148151 10.666666666666664)"/><use xlink:href="#H" transform="matrix(1,0,0,1,1417.3204819277107,540) translate(69.42592592592592 10.666666666666664)"/><use xlink:href="#I" transform="matrix(1,0,0,1,1417.3204819277107,540) translate(10.592592592592617 26.66666666666666)"/><use xlink:href="#g" transform="matrix(1,0,0,1,1417.3204819277107,540) translate(54.22222222222223 26.66666666666666)"/><use xlink:href="#w" transform="matrix(1,0,0,1,1417.3204819277107,540) translate(65.33333333333334 26.66666666666666)"/><use xlink:href="#J" transform="matrix(1,0,0,1,1417.3204819277107,540) translate(96.37037037037035 26.66666666666666)"/><use xlink:href="#K" transform="matrix(1,0,0,1,1417.3204819277107,540) translate(39.500000000000014 42.66666666666666)"/><path d="M1685.32 538c0-3.3 2.7-6 6-6h148c3.3 0 6 2.7 6 6v52c0 3.3-2.7 6-6 6h-148c-3.3 0-6-2.7-6-6z" stroke="#5e5e5e" stroke-width="3" fill="#c7e8ac"/><use xlink:href="#L" transform="matrix(1,0,0,1,1697.3204819277107,544) translate(5.888888888888914 15.666666666666664)"/><use xlink:href="#z" transform="matrix(1,0,0,1,1697.3204819277107,544) translate(61.333333333333336 15.666666666666664)"/><use xlink:href="#M" transform="matrix(1,0,0,1,1697.3204819277107,544) translate(75.37037037037037 15.666666666666664)"/><use xlink:href="#N" transform="matrix(1,0,0,1,1697.3204819277107,544) translate(26.925925925925945 31.66666666666666)"/><use xlink:href="#n" transform="matrix(1,0,0,1,1697.3204819277107,544) translate(45.44444444444446 31.66666666666666)"/><use xlink:href="#O" transform="matrix(1,0,0,1,1697.3204819277107,544) translate(59.48148148148149 31.66666666666666)"/><path d="M1567.82 564h97.5" stroke="#5e5e5e" stroke-width="2" fill="none"/><path d="M1567.85 565h-1.03v-2h1.03z" fill="#5e5e5e"/><path d="M1680.58 564l-14.26 4.64v-9.28z" stroke="#5e5e5e" stroke-width="2" fill="#5e5e5e"/><path d="M1215.72 699.6c2.65-2 6.95-2 9.6 0l70.4 52.8c2.65 2 2.65 5.2 0 7.2l-70.4 52.8c-2.65 2-6.95 2-9.6 0l-70.4-52.8c-2.65-2-2.65-5.2 0-7.2z" stroke="#5e5e5e" stroke-width="3" fill="#7ab648"/><use xlink:href="#P" transform="matrix(1,0,0,1,1145.5204819276642,701) translate(59.11611111111112 31.291666666666664)"/><use xlink:href="#Q" transform="matrix(1,0,0,1,1145.5204819276642,701) translate(40.63462962962964 47.291666666666664)"/><use xlink:href="#R" transform="matrix(1,0,0,1,1145.5204819276642,701) translate(29.486481481481498 63.291666666666664)"/><use xlink:href="#S" transform="matrix(1,0,0,1,1145.5204819276642,701) translate(105.70870370370369 63.291666666666664)"/><use xlink:href="#T" transform="matrix(1,0,0,1,1145.5204819276642,701) translate(35.3753703703704 79.29166666666666)"/><use xlink:href="#N" transform="matrix(1,0,0,1,1145.5204819276642,701) translate(74.63462962962963 79.29166666666666)"/><use xlink:href="#U" transform="matrix(1,0,0,1,1145.5204819276642,701) translate(93.15314814814813 79.29166666666666)"/><use xlink:href="#V" transform="matrix(1,0,0,1,1145.5204819276642,701) translate(63.54203703703704 95.29166666666666)"/><path d="M1140.52 894c0-3.3 2.7-6 6-6h148c3.3 0 6 2.7 6 6v40c0 3.3-2.7 6-6 6h-148c-3.3 0-6-2.7-6-6z" stroke="#5e5e5e" stroke-width="3" fill="#c7e8ac"/><use xlink:href="#W" transform="matrix(1,0,0,1,1152.5204819277105,900.0000000000001) translate(3.314814814814838 10.666666666666664)"/><use xlink:href="#n" transform="matrix(1,0,0,1,1152.5204819277105,900.0000000000001) translate(49.90740740740741 10.666666666666664)"/><use xlink:href="#Q" transform="matrix(1,0,0,1,1152.5204819277105,900.0000000000001) translate(63.94444444444444 10.666666666666664)"/><use xlink:href="#N" transform="matrix(1,0,0,1,1152.5204819277105,900.0000000000001) translate(33.94444444444446 26.66666666666666)"/><use xlink:href="#n" transform="matrix(1,0,0,1,1152.5204819277105,900.0000000000001) translate(52.46296296296296 26.66666666666666)"/><use xlink:href="#X" transform="matrix(1,0,0,1,1152.5204819277105,900.0000000000001) translate(66.5 26.66666666666666)"/><path d="M1140.52 1018c0-3.3 2.7-6 6-6h148c3.3 0 6 2.7 6 6v56c0 3.3-2.7 6-6 6h-148c-3.3 0-6-2.7-6-6z" stroke="#5e5e5e" stroke-width="3" fill="#c7e8ac"/><use xlink:href="#L" transform="matrix(1,0,0,1,1152.5204819276642,1024) translate(35.11111111111113 10.666666666666664)"/><use xlink:href="#Y" transform="matrix(1,0,0,1,1152.5204819276642,1024) translate(90.55555555555554 10.666666666666664)"/><use xlink:href="#Z" transform="matrix(1,0,0,1,1152.5204819276642,1024) translate(8.111111111111143 26.66666666666666)"/><use xlink:href="#aa" transform="matrix(1,0,0,1,1152.5204819276642,1024) translate(80.55555555555554 26.66666666666666)"/><use xlink:href="#N" transform="matrix(1,0,0,1,1152.5204819276642,1024) translate(6.240740740740762 42.66666666666666)"/><use xlink:href="#n" transform="matrix(1,0,0,1,1152.5204819276642,1024) translate(24.75925925925927 42.66666666666666)"/><use xlink:href="#ab" transform="matrix(1,0,0,1,1152.5204819276642,1024) translate(38.796296296296305 42.66666666666666)"/><use xlink:href="#X" transform="matrix(1,0,0,1,1152.5204819276642,1024) translate(94.2037037037037 42.66666666666666)"/><path d="M1220.52 942.5V992" stroke="#5e5e5e" stroke-width="2" fill="none"/><path d="M1221.52 942.53h-2v-1.03h2z" fill="#5e5e5e"/><path d="M1220.52 1007.26L1215.9 993h9.26z" stroke="#5e5e5e" stroke-width="2" fill="#5e5e5e"/><path d="M973.32 1120c17.67 0 32 13.43 32 30s-14.33 30-32 30h-96c-17.67 0-32-13.43-32-30s14.33-30 32-30z" stroke="#5e5e5e" stroke-width="3" fill="#a3d977"/><use xlink:href="#ac" transform="matrix(1,0,0,1,850.3204819277108,1125) translate(2.203703703703738 20.041666666666664)"/><use xlink:href="#n" transform="matrix(1,0,0,1,850.3204819277108,1125) translate(56.0925925925926 20.041666666666664)"/><use xlink:href="#ad" transform="matrix(1,0,0,1,850.3204819277108,1125) translate(70.12962962962963 20.041666666666664)"/><use xlink:href="#ae" transform="matrix(1,0,0,1,850.3204819277108,1125) translate(130.05555555555554 20.041666666666664)"/><use xlink:href="#af" transform="matrix(1,0,0,1,850.3204819277108,1125) translate(52.796296296296305 36.04166666666666)"/><path d="M1138.02 1046H951.56c-3.3 0-6 2.7-6 6v48" stroke="#5e5e5e" stroke-width="2" fill="none"/><path d="M1139.02 1047H1138v-2h1.02z" fill="#5e5e5e"/><path d="M945.56 1115.26l-4.63-14.26h9.27z" stroke="#5e5e5e" stroke-width="2" fill="#5e5e5e"/><path d="M1766.32 1164.37l-.92 3.4-2.53 2.54-3.42.93H1017.4v-2h741.8l2.63-.7 1.78-1.8.72-2.63V598.5h2z" fill="#5e5e5e"/><path d="M1766.32 598.53h-2v-1.03h2zM1016.4 1174.87l-14.28-4.64 14.27-4.63z" fill="#5e5e5e"/><path d="M1017.4 1176.25l-18.5-6.02 18.5-6zm-12.04-6.02l10.03 3.26v-6.53z" fill="#5e5e5e"/><path d="M1405.32 846c0-3.3 2.7-6 6-6h148c3.3 0 6 2.7 6 6v108c0 3.3-2.7 6-6 6h-148c-3.3 0-6-2.7-6-6z" stroke="#5e5e5e" stroke-width="3" fill="#c7e8ac"/><use xlink:href="#ag" transform="matrix(1,0,0,1,1417.3204819277107,852) translate(7.351851851851876 10.666666666666664)"/><use xlink:href="#z" transform="matrix(1,0,0,1,1417.3204819277107,852) translate(59.870370370370374 10.666666666666664)"/><use xlink:href="#M" transform="matrix(1,0,0,1,1417.3204819277107,852) translate(73.9074074074074 10.666666666666664)"/><use xlink:href="#N" transform="matrix(1,0,0,1,1417.3204819277107,852) translate(17.666666666666686 26.66666666666666)"/><use xlink:href="#n" transform="matrix(1,0,0,1,1417.3204819277107,852) translate(36.18518518518519 26.66666666666666)"/><use xlink:href="#ah" transform="matrix(1,0,0,1,1417.3204819277107,852) translate(50.22222222222223 26.66666666666666)"/><use xlink:href="#S" transform="matrix(1,0,0,1,1417.3204819277107,852) translate(103.5185185185185 26.66666666666666)"/><use xlink:href="#ai" transform="matrix(1,0,0,1,1417.3204819277107,852) translate(7.685185185185205 42.66666666666666)"/><use xlink:href="#aj" transform="matrix(1,0,0,1,1417.3204819277107,852) translate(50.648148148148145 42.66666666666666)"/><use xlink:href="#ak" transform="matrix(1,0,0,1,1417.3204819277107,852) translate(111.3148148148148 42.66666666666666)"/><use xlink:href="#al" transform="matrix(1,0,0,1,1417.3204819277107,852) translate(34.722222222222236 58.66666666666665)"/><use xlink:href="#B" transform="matrix(1,0,0,1,1417.3204819277107,852) translate(86.46296296296296 58.66666666666665)"/><use xlink:href="#am" transform="matrix(1,0,0,1,1417.3204819277107,852) translate(7.722222222222257 74.66666666666666)"/><use xlink:href="#N" transform="matrix(1,0,0,1,1417.3204819277107,852) translate(99.42592592592591 74.66666666666666)"/><use xlink:href="#Y" transform="matrix(1,0,0,1,1417.3204819277107,852) translate(117.94444444444441 74.66666666666666)"/><use xlink:href="#V" transform="matrix(1,0,0,1,1417.3204819277107,852) translate(56.53703703703704 90.66666666666666)"/><path d="M1405.32 726c0-3.3 2.7-6 6-6h148c3.3 0 6 2.7 6 6v60c0 3.3-2.7 6-6 6h-148c-3.3 0-6-2.7-6-6z" stroke="#5e5e5e" stroke-width="3" fill="#c7e8ac"/><use xlink:href="#G" transform="matrix(1,0,0,1,1417.3204819277107,732) translate(16.98148148148151 10.666666666666664)"/><use xlink:href="#H" transform="matrix(1,0,0,1,1417.3204819277107,732) translate(69.42592592592592 10.666666666666664)"/><use xlink:href="#I" transform="matrix(1,0,0,1,1417.3204819277107,732) translate(10.592592592592617 26.66666666666666)"/><use xlink:href="#g" transform="matrix(1,0,0,1,1417.3204819277107,732) translate(54.22222222222223 26.66666666666666)"/><use xlink:href="#w" transform="matrix(1,0,0,1,1417.3204819277107,732) translate(65.33333333333334 26.66666666666666)"/><use xlink:href="#J" transform="matrix(1,0,0,1,1417.3204819277107,732) translate(96.37037037037035 26.66666666666666)"/><use xlink:href="#K" transform="matrix(1,0,0,1,1417.3204819277107,732) translate(39.500000000000014 42.66666666666666)"/><path d="M1485.32 794.5V820" stroke="#5e5e5e" stroke-width="2" fill="none"/><path d="M1486.32 794.53h-2v-1.03h2z" fill="#5e5e5e"/><path d="M1485.32 835.26L1480.7 821h9.26z" stroke="#5e5e5e" stroke-width="2" fill="#5e5e5e"/><path d="M1405.32 1018c0-3.3 2.7-6 6-6h148c3.3 0 6 2.7 6 6v56c0 3.3-2.7 6-6 6h-148c-3.3 0-6-2.7-6-6z" stroke="#5e5e5e" stroke-width="3" fill="#c7e8ac"/><use xlink:href="#L" transform="matrix(1,0,0,1,1417.3204819277107,1024) translate(5.888888888888914 16.166666666666664)"/><use xlink:href="#z" transform="matrix(1,0,0,1,1417.3204819277107,1024) translate(61.333333333333336 16.166666666666664)"/><use xlink:href="#M" transform="matrix(1,0,0,1,1417.3204819277107,1024) translate(75.37037037037037 16.166666666666664)"/><use xlink:href="#N" transform="matrix(1,0,0,1,1417.3204819277107,1024) translate(26.925925925925945 32.16666666666666)"/><use xlink:href="#n" transform="matrix(1,0,0,1,1417.3204819277107,1024) translate(45.44444444444446 32.16666666666666)"/><use xlink:href="#O" transform="matrix(1,0,0,1,1417.3204819277107,1024) translate(59.48148148148149 32.16666666666666)"/><path d="M1485.32 962.5V992" stroke="#5e5e5e" stroke-width="2" fill="none"/><path d="M1486.32 962.53h-2v-1.03h2z" fill="#5e5e5e"/><path d="M1485.32 1007.26L1480.7 993h9.26z" stroke="#5e5e5e" stroke-width="2" fill="#5e5e5e"/><path d="M1485.32 1082.5v46c0 3.32-2.7 6-6 6H1020.9" stroke="#5e5e5e" stroke-width="2" fill="none"/><path d="M1486.32 1082.53h-2v-1.03h2z" fill="#5e5e5e"/><path d="M1005.63 1134.5l14.26-4.63v9.27z" stroke="#5e5e5e" stroke-width="2" fill="#5e5e5e"/><path d="M545.56 318c0-3.3 2.7-6 6-6h148c3.32 0 6 2.7 6 6v108c0 3.3-2.68 6-6 6h-148c-3.3 0-6-2.7-6-6z" stroke="#5e5e5e" stroke-width="3" fill="#c7e8ac"/><use xlink:href="#m" transform="matrix(1,0,0,1,557.5614457831326,324) translate(5.092592592592624 10.666666666666664)"/><use xlink:href="#n" transform="matrix(1,0,0,1,557.5614457831326,324) translate(50.240740740740755 10.666666666666664)"/><use xlink:href="#o" transform="matrix(1,0,0,1,557.5614457831326,324) translate(64.27777777777779 10.666666666666664)"/><use xlink:href="#p" transform="matrix(1,0,0,1,557.5614457831326,324) translate(90.9074074074074 10.666666666666664)"/><use xlink:href="#q" transform="matrix(1,0,0,1,557.5614457831326,324) translate(116.83333333333331 10.666666666666664)"/><use xlink:href="#r" transform="matrix(1,0,0,1,557.5614457831326,324) translate(3.648148148148181 26.66666666666666)"/><use xlink:href="#f" transform="matrix(1,0,0,1,557.5614457831326,324) translate(44.31481481481483 26.66666666666666)"/><use xlink:href="#s" transform="matrix(1,0,0,1,557.5614457831326,324) translate(102.0185185185185 26.66666666666666)"/><use xlink:href="#t" transform="matrix(1,0,0,1,557.5614457831326,324) translate(0.6666666666666998 42.66666666666666)"/><use xlink:href="#u" transform="matrix(1,0,0,1,557.5614457831326,324) translate(21.370370370370395 42.66666666666666)"/><use xlink:href="#v" transform="matrix(1,0,0,1,557.5614457831326,324) translate(54.66666666666668 42.66666666666666)"/><use xlink:href="#g" transform="matrix(1,0,0,1,557.5614457831326,324) translate(19.94444444444447 58.66666666666665)"/><use xlink:href="#an" transform="matrix(1,0,0,1,557.5614457831326,324) translate(31.05555555555558 58.66666666666665)"/><use xlink:href="#y" transform="matrix(1,0,0,1,557.5614457831326,324) translate(87.2037037037037 58.66666666666665)"/><use xlink:href="#ao" transform="matrix(1,0,0,1,557.5614457831326,324) translate(105.7222222222222 58.66666666666665)"/><use xlink:href="#A" transform="matrix(1,0,0,1,557.5614457831326,324) translate(37.296296296296305 74.66666666666666)"/><use xlink:href="#B" transform="matrix(1,0,0,1,557.5614457831326,324) translate(83.88888888888889 74.66666666666666)"/><use xlink:href="#C" transform="matrix(1,0,0,1,557.5614457831326,324) translate(28.425925925925945 90.66666666666666)"/><path d="M620.76 507.6c2.65-2 6.95-2 9.6 0l70.4 52.8c2.65 2 2.65 5.2 0 7.2l-70.4 52.8c-2.65 2-6.95 2-9.6 0l-70.4-52.8c-2.65-2-2.65-5.2 0-7.2z" stroke="#5e5e5e" stroke-width="3" fill="#7ab648"/><g><use xlink:href="#D" transform="matrix(1,0,0,1,550.5614457831326,509) translate(41.33833333333335 41.604166666666664)"/><use xlink:href="#o" transform="matrix(1,0,0,1,550.5614457831326,509) translate(67.96796296296297 41.604166666666664)"/><use xlink:href="#q" transform="matrix(1,0,0,1,550.5614457831326,509) translate(94.59759259259259 41.604166666666664)"/><use xlink:href="#E" transform="matrix(1,0,0,1,550.5614457831326,509) translate(45.3938888888889 57.604166666666664)"/><use xlink:href="#F" transform="matrix(1,0,0,1,550.5614457831326,509) translate(34.301296296296314 73.60416666666666)"/></g><path d="M625.56 434.5v51.67" stroke="#5e5e5e" stroke-width="2" fill="none"/><path d="M626.56 434.53h-2v-1.03h2z" fill="#5e5e5e"/><path d="M625.56 501.43l-4.63-14.26h9.27z" stroke="#5e5e5e" stroke-width="2" fill="#5e5e5e"/><path d="M285.32 538c0-3.3 2.7-6 6-6h148c3.3 0 6 2.7 6 6v52c0 3.3-2.7 6-6 6h-148c-3.3 0-6-2.7-6-6z" stroke="#5e5e5e" stroke-width="3" fill="#c7e8ac"/><g><use xlink:href="#G" transform="matrix(1,0,0,1,297.32048192771083,544) translate(16.98148148148151 15.666666666666664)"/><use xlink:href="#H" transform="matrix(1,0,0,1,297.32048192771083,544) translate(69.42592592592592 15.666666666666664)"/><use xlink:href="#I" transform="matrix(1,0,0,1,297.32048192771083,544) translate(14.407407407407433 31.66666666666666)"/><use xlink:href="#g" transform="matrix(1,0,0,1,297.32048192771083,544) translate(58.037037037037045 31.66666666666666)"/><use xlink:href="#ap" transform="matrix(1,0,0,1,297.32048192771083,544) translate(69.14814814814815 31.66666666666666)"/></g><path d="M25.08 534c0-3.3 2.7-6 6-6h148c3.3 0 6 2.7 6 6v52c0 3.3-2.7 6-6 6h-148c-3.3 0-6-2.7-6-6z" stroke="#5e5e5e" stroke-width="3" fill="#c7e8ac"/><g><use xlink:href="#L" transform="matrix(1,0,0,1,37.079518072289034,540) translate(5.888888888888914 15.666666666666664)"/><use xlink:href="#z" transform="matrix(1,0,0,1,37.079518072289034,540) translate(61.333333333333336 15.666666666666664)"/><use xlink:href="#M" transform="matrix(1,0,0,1,37.079518072289034,540) translate(75.37037037037037 15.666666666666664)"/><use xlink:href="#N" transform="matrix(1,0,0,1,37.079518072289034,540) translate(26.925925925925945 31.66666666666666)"/><use xlink:href="#n" transform="matrix(1,0,0,1,37.079518072289034,540) translate(45.44444444444446 31.66666666666666)"/><use xlink:href="#O" transform="matrix(1,0,0,1,37.079518072289034,540) translate(59.48148148148149 31.66666666666666)"/></g><path d="M620.76 699.6c2.65-2 6.95-2 9.6 0l70.4 52.8c2.65 2 2.65 5.2 0 7.2l-70.4 52.8c-2.65 2-6.95 2-9.6 0l-70.4-52.8c-2.65-2-2.65-5.2 0-7.2z" stroke="#5e5e5e" stroke-width="3" fill="#7ab648"/><g><use xlink:href="#P" transform="matrix(1,0,0,1,550.5614457831326,701) translate(59.11611111111112 31.291666666666664)"/><use xlink:href="#Q" transform="matrix(1,0,0,1,550.5614457831326,701) translate(40.63462962962964 47.291666666666664)"/><use xlink:href="#R" transform="matrix(1,0,0,1,550.5614457831326,701) translate(29.486481481481498 63.291666666666664)"/><use xlink:href="#S" transform="matrix(1,0,0,1,550.5614457831326,701) translate(105.70870370370369 63.291666666666664)"/><use xlink:href="#T" transform="matrix(1,0,0,1,550.5614457831326,701) translate(35.3753703703704 79.29166666666666)"/><use xlink:href="#N" transform="matrix(1,0,0,1,550.5614457831326,701) translate(74.63462962962963 79.29166666666666)"/><use xlink:href="#U" transform="matrix(1,0,0,1,550.5614457831326,701) translate(93.15314814814813 79.29166666666666)"/><use xlink:href="#V" transform="matrix(1,0,0,1,550.5614457831326,701) translate(63.54203703703704 95.29166666666666)"/></g><path d="M545.56 894c0-3.3 2.7-6 6-6h148c3.32 0 6 2.7 6 6v40c0 3.3-2.68 6-6 6h-148c-3.3 0-6-2.7-6-6z" stroke="#5e5e5e" stroke-width="3" fill="#c7e8ac"/><g><use xlink:href="#W" transform="matrix(1,0,0,1,557.561445783179,900.0000000000001) translate(3.314814814814838 10.666666666666664)"/><use xlink:href="#n" transform="matrix(1,0,0,1,557.561445783179,900.0000000000001) translate(49.90740740740741 10.666666666666664)"/><use xlink:href="#Q" transform="matrix(1,0,0,1,557.561445783179,900.0000000000001) translate(63.94444444444444 10.666666666666664)"/><use xlink:href="#N" transform="matrix(1,0,0,1,557.561445783179,900.0000000000001) translate(33.94444444444446 26.66666666666666)"/><use xlink:href="#n" transform="matrix(1,0,0,1,557.561445783179,900.0000000000001) translate(52.46296296296296 26.66666666666666)"/><use xlink:href="#X" transform="matrix(1,0,0,1,557.561445783179,900.0000000000001) translate(66.5 26.66666666666666)"/></g><path d="M545.56 1018c0-3.3 2.7-6 6-6h148c3.32 0 6 2.7 6 6v56c0 3.3-2.68 6-6 6h-148c-3.3 0-6-2.7-6-6z" stroke="#5e5e5e" stroke-width="3" fill="#c7e8ac"/><g><use xlink:href="#L" transform="matrix(1,0,0,1,557.5614457831326,1024) translate(35.11111111111113 10.666666666666664)"/><use xlink:href="#Y" transform="matrix(1,0,0,1,557.5614457831326,1024) translate(90.55555555555554 10.666666666666664)"/><use xlink:href="#Z" transform="matrix(1,0,0,1,557.5614457831326,1024) translate(8.111111111111143 26.66666666666666)"/><use xlink:href="#aa" transform="matrix(1,0,0,1,557.5614457831326,1024) translate(80.55555555555554 26.66666666666666)"/><use xlink:href="#N" transform="matrix(1,0,0,1,557.5614457831326,1024) translate(6.240740740740762 42.66666666666666)"/><use xlink:href="#n" transform="matrix(1,0,0,1,557.5614457831326,1024) translate(24.75925925925927 42.66666666666666)"/><use xlink:href="#ab" transform="matrix(1,0,0,1,557.5614457831326,1024) translate(38.796296296296305 42.66666666666666)"/><use xlink:href="#X" transform="matrix(1,0,0,1,557.5614457831326,1024) translate(94.2037037037037 42.66666666666666)"/></g><path d="M625.56 942.5V992" stroke="#5e5e5e" stroke-width="2" fill="none"/><path d="M626.56 942.53h-2v-1.03h2z" fill="#5e5e5e"/><path d="M625.56 1007.26L620.93 993h9.27z" stroke="#5e5e5e" stroke-width="2" fill="#5e5e5e"/><path d="M285.32 846c0-3.3 2.7-6 6-6h148c3.3 0 6 2.7 6 6v108c0 3.3-2.7 6-6 6h-148c-3.3 0-6-2.7-6-6z" stroke="#5e5e5e" stroke-width="3" fill="#c7e8ac"/><g><use xlink:href="#ag" transform="matrix(1,0,0,1,297.32048192771083,852) translate(7.351851851851876 10.666666666666664)"/><use xlink:href="#z" transform="matrix(1,0,0,1,297.32048192771083,852) translate(59.870370370370374 10.666666666666664)"/><use xlink:href="#M" transform="matrix(1,0,0,1,297.32048192771083,852) translate(73.9074074074074 10.666666666666664)"/><use xlink:href="#N" transform="matrix(1,0,0,1,297.32048192771083,852) translate(17.666666666666686 26.66666666666666)"/><use xlink:href="#n" transform="matrix(1,0,0,1,297.32048192771083,852) translate(36.18518518518519 26.66666666666666)"/><use xlink:href="#ah" transform="matrix(1,0,0,1,297.32048192771083,852) translate(50.22222222222223 26.66666666666666)"/><use xlink:href="#S" transform="matrix(1,0,0,1,297.32048192771083,852) translate(103.5185185185185 26.66666666666666)"/><use xlink:href="#ai" transform="matrix(1,0,0,1,297.32048192771083,852) translate(7.685185185185205 42.66666666666666)"/><use xlink:href="#aj" transform="matrix(1,0,0,1,297.32048192771083,852) translate(50.648148148148145 42.66666666666666)"/><use xlink:href="#ak" transform="matrix(1,0,0,1,297.32048192771083,852) translate(111.3148148148148 42.66666666666666)"/><use xlink:href="#al" transform="matrix(1,0,0,1,297.32048192771083,852) translate(34.722222222222236 58.66666666666665)"/><use xlink:href="#B" transform="matrix(1,0,0,1,297.32048192771083,852) translate(86.46296296296296 58.66666666666665)"/><use xlink:href="#am" transform="matrix(1,0,0,1,297.32048192771083,852) translate(7.722222222222257 74.66666666666666)"/><use xlink:href="#N" transform="matrix(1,0,0,1,297.32048192771083,852) translate(99.42592592592591 74.66666666666666)"/><use xlink:href="#Y" transform="matrix(1,0,0,1,297.32048192771083,852) translate(117.94444444444441 74.66666666666666)"/><use xlink:href="#V" transform="matrix(1,0,0,1,297.32048192771083,852) translate(56.53703703703704 90.66666666666666)"/></g><path d="M285.32 730c0-3.3 2.7-6 6-6h148c3.3 0 6 2.7 6 6v52c0 3.3-2.7 6-6 6h-148c-3.3 0-6-2.7-6-6z" stroke="#5e5e5e" stroke-width="3" fill="#c7e8ac"/><g><use xlink:href="#G" transform="matrix(1,0,0,1,297.32048192771083,736) translate(16.98148148148151 15.666666666666664)"/><use xlink:href="#H" transform="matrix(1,0,0,1,297.32048192771083,736) translate(69.42592592592592 15.666666666666664)"/><use xlink:href="#I" transform="matrix(1,0,0,1,297.32048192771083,736) translate(14.407407407407433 31.66666666666666)"/><use xlink:href="#g" transform="matrix(1,0,0,1,297.32048192771083,736) translate(58.037037037037045 31.66666666666666)"/><use xlink:href="#ap" transform="matrix(1,0,0,1,297.32048192771083,736) translate(69.14814814814815 31.66666666666666)"/></g><path d="M365.32 790.5V820" stroke="#5e5e5e" stroke-width="2" fill="none"/><path d="M366.32 790.53h-2v-1.03h2z" fill="#5e5e5e"/><path d="M365.32 835.26L360.7 821h9.26z" stroke="#5e5e5e" stroke-width="2" fill="#5e5e5e"/><path d="M285.32 1018c0-3.3 2.7-6 6-6h148c3.3 0 6 2.7 6 6v56c0 3.3-2.7 6-6 6h-148c-3.3 0-6-2.7-6-6z" stroke="#5e5e5e" stroke-width="3" fill="#c7e8ac"/><g><use xlink:href="#L" transform="matrix(1,0,0,1,297.32048192771083,1024) translate(5.888888888888914 16.166666666666664)"/><use xlink:href="#z" transform="matrix(1,0,0,1,297.32048192771083,1024) translate(61.333333333333336 16.166666666666664)"/><use xlink:href="#M" transform="matrix(1,0,0,1,297.32048192771083,1024) translate(75.37037037037037 16.166666666666664)"/><use xlink:href="#N" transform="matrix(1,0,0,1,297.32048192771083,1024) translate(26.925925925925945 32.16666666666666)"/><use xlink:href="#n" transform="matrix(1,0,0,1,297.32048192771083,1024) translate(45.44444444444446 32.16666666666666)"/><use xlink:href="#O" transform="matrix(1,0,0,1,297.32048192771083,1024) translate(59.48148148148149 32.16666666666666)"/></g><path d="M365.32 962.5V992" stroke="#5e5e5e" stroke-width="2" fill="none"/><path d="M366.32 962.53h-2v-1.03h2z" fill="#5e5e5e"/><path d="M365.32 1007.26L360.7 993h9.26z" stroke="#5e5e5e" stroke-width="2" fill="#5e5e5e"/><path d="M282.82 564h-77.74" stroke="#5e5e5e" stroke-width="2" fill="none"/><path d="M283.82 565h-1.03v-2h1.02z" fill="#5e5e5e"/><path d="M189.82 564l14.26-4.64v9.28z" stroke="#5e5e5e" stroke-width="2" fill="#5e5e5e"/><path d="M106.08 1163.48l.7 2.65 1.8 1.77 2.63.72h721.53v2H110.95l-3.42-.93-2.53-2.54-.92-3.4V594.5h2z" fill="#5e5e5e"/><path d="M106.08 594.53h-2v-1.03h2zM848 1169.62l-14.27 4.63v-9.27z" fill="#5e5e5e"/><path d="M851.23 1169.62l-18.5 6v-12.02zm-16.5 3.26l10.03-3.26-10.03-3.26z" fill="#5e5e5e"/><path d="M365.32 1082.5v43.83c0 3.32 2.7 6 6 6h459.75" stroke="#5e5e5e" stroke-width="2" fill="none"/><path d="M366.32 1082.53h-2v-1.03h2z" fill="#5e5e5e"/><path d="M846.34 1132.33l-14.27 4.64v-9.27z" stroke="#5e5e5e" stroke-width="2" fill="#5e5e5e"/><path d="M708.06 1046h186.2c3.3 0 6 2.7 6 6v48" stroke="#5e5e5e" stroke-width="2" fill="none"/><path d="M708.1 1047h-1.04v-2h1.03z" fill="#5e5e5e"/><path d="M900.25 1115.26l-4.63-14.26h9.27z" stroke="#5e5e5e" stroke-width="2" fill="#5e5e5e"/><path d="M1218.07 239.92l2.53 2.53.92 3.42V292h-2v-45.87l-.7-2.64-1.8-1.8-2.63-.7h-4.18v-2h4.43zM1004.93 241v-2h79.8v2z" fill="#5e5e5e"/><path d="M1004.96 241h-1.1l.18-.4-.28-1.6h1.2zM1220.52 307.26L1215.9 293h9.26z" fill="#5e5e5e"/><path d="M1220.52 310.5l-6-18.5h12zm-3.26-16.5l3.26 10.03 3.26-10.03z" fill="#5e5e5e"/><g><use xlink:href="#aq" transform="matrix(1,0,0,1,1084.7353037067405,232) translate(0.005000000000002558 10.666666666666668)"/><use xlink:href="#ar" transform="matrix(1,0,0,1,1084.7353037067405,232) translate(31.81981481481482 10.666666666666668)"/><use xlink:href="#as" transform="matrix(1,0,0,1,1084.7353037067405,232) translate(66.33833333333334 10.666666666666668)"/></g><path d="M672.42 241H631.7l-2.65.7-1.77 1.8-.72 2.63V292h-2v-46.13l.92-3.42 2.53-2.53 3.43-.92h41zm173.3 0H729.34v-2H845.7z" fill="#5e5e5e"/><path d="M846.6 239.4l.28 1.6h-1.2v-2h1.1zM625.56 307.26L620.93 293h9.27z" fill="#5e5e5e"/><path d="M625.56 310.5l-6-18.5h12zM622.3 294l3.26 10.03 3.26-10.03z" fill="#5e5e5e"/><g><use xlink:href="#at" transform="matrix(1,0,0,1,672.4224383726652,232) translate(0.004999999999999005 10.666666666666668)"/></g><path d="M626.56 678.17h-2V668h2zm0-26.17h-2v-27.67h2z" fill="#5e5e5e"/><path d="M626.56 623.35v1h-2v-1.04zM625.56 693.43l-4.63-14.26h9.27z" fill="#5e5e5e"/><path d="M625.56 696.67l-6-18.5h12zm-3.26-16.5l3.26 10.03 3.26-10.03z" fill="#5e5e5e"/><g><use xlink:href="#au" transform="matrix(1,0,0,1,620.0058902275771,652) translate(0.004999999999999893 10.666666666666668)"/></g><path d="M488.77 565h-23.45v-2h23.45zm57.18 0H505v-2h40.95z" fill="#5e5e5e"/><path d="M546.85 563.4l.27 1.6h-1.2v-2h1.1zM464.32 568.64L450.06 564l14.26-4.64z" fill="#5e5e5e"/><path d="M465.32 570l-18.5-6 18.5-6zm-12.03-6l10.02 3.26v-6.52z" fill="#5e5e5e"/><g><use xlink:href="#av" transform="matrix(1,0,0,1,488.77429022451696,556) translate(0.005000000000000782 10.666666666666668)"/></g><path d="M1221.52 678.17h-2V668h2zm0-26.17h-2v-27.67h2z" fill="#5e5e5e"/><path d="M1221.52 623.35v1h-2v-1.04zM1220.52 693.43l-4.63-14.26h9.26z" fill="#5e5e5e"/><path d="M1220.52 696.67l-6-18.5h12zm-3.26-16.5l3.26 10.03 3.26-10.03z" fill="#5e5e5e"/><g><use xlink:href="#aw" transform="matrix(1,0,0,1,1214.2241856313678,652) translate(0.004999999999999893 10.666666666666668)"/></g><path d="M1343.36 565h-43.23v-2h43.23zm41.96 0h-25.73v-2h25.72z" fill="#5e5e5e"/><path d="M1300.16 565h-1.1l.18-.4-.28-1.6h1.2zM1400.58 564l-14.26 4.64v-9.28z" fill="#5e5e5e"/><path d="M1403.82 564l-18.5 6v-12zm-16.5 3.26l10.03-3.26-10.03-3.26z" fill="#5e5e5e"/><g><use xlink:href="#av" transform="matrix(1,0,0,1,1343.36493333637,556) translate(0.005000000000000782 10.666666666666668)"/></g><path d="M1221.52 868h-2v-9.1h2zm0-25.1h-2v-26.57h2z" fill="#5e5e5e"/><path d="M1221.52 815.35v1h-2v-1.04zM1220.52 883.26L1215.9 869h9.26z" fill="#5e5e5e"/><path d="M1220.52 886.5l-6-18.5h12zm-3.26-16.5l3.26 10.03 3.26-10.03z" fill="#5e5e5e"/><g><use xlink:href="#aw" transform="matrix(1,0,0,1,1214.2241856313678,842.9147159818724) translate(0.004999999999999893 10.666666666666668)"/></g><path d="M1343.36 757h-43.23v-2h43.23zm41.96 0h-25.73v-2h25.72z" fill="#5e5e5e"/><path d="M1300.16 757h-1.1l.18-.4-.28-1.6h1.2zM1400.58 756l-14.26 4.64v-9.28z" fill="#5e5e5e"/><path d="M1403.82 756l-18.5 6v-12zm-16.5 3.26l10.03-3.26-10.03-3.26z" fill="#5e5e5e"/><g><use xlink:href="#av" transform="matrix(1,0,0,1,1343.36493333637,748) translate(0.005000000000000782 10.666666666666668)"/></g><path d="M626.56 868h-2v-9.1h2zm0-25.1h-2v-26.57h2z" fill="#5e5e5e"/><path d="M626.56 815.35v1h-2v-1.04zM625.56 883.26L620.93 869h9.27z" fill="#5e5e5e"/><path d="M625.56 886.5l-6-18.5h12zM622.3 870l3.26 10.03 3.26-10.03z" fill="#5e5e5e"/><g><use xlink:href="#aw" transform="matrix(1,0,0,1,619.2651494868363,842.9147159818724) translate(0.004999999999999893 10.666666666666668)"/></g><path d="M488.77 757h-23.45v-2h23.45zm57.18 0H505v-2h40.95z" fill="#5e5e5e"/><path d="M546.85 755.4l.27 1.6h-1.2v-2h1.1zM464.32 760.64L450.06 756l14.26-4.64z" fill="#5e5e5e"/><path d="M465.32 762l-18.5-6 18.5-6zm-12.03-6l10.02 3.26v-6.52z" fill="#5e5e5e"/><g><use xlink:href="#av" transform="matrix(1,0,0,1,488.77429022451696,748) translate(0.005000000000000782 10.666666666666668)"/></g><defs><path fill="#333" d="M233-177c-1 41-23 64-60 70L243 0h-38l-65-103H63V0H30v-248c88 3 205-21 203 71zM63-129c60-2 137 13 137-47 0-61-80-42-137-45v92" id="ax"/><path fill="#333" d="M100-194c63 0 86 42 84 106H49c0 40 14 67 53 68 26 1 43-12 49-29l28 8c-11 28-37 45-77 45C44 4 14-33 15-96c1-61 26-98 85-98zm52 81c6-60-76-77-97-28-3 7-6 17-6 28h103" id="ay"/><path fill="#333" d="M96-169c-40 0-48 33-48 73s9 75 48 75c24 0 41-14 43-38l32 2c-6 37-31 61-74 61-59 0-76-41-82-99-10-93 101-131 147-64 4 7 5 14 7 22l-32 3c-4-21-16-35-41-35" id="az"/><path fill="#333" d="M24-231v-30h32v30H24zM24 0v-190h32V0H24" id="aA"/><path fill="#333" d="M115-194c53 0 69 39 70 98 0 66-23 100-70 100C84 3 66-7 56-30L54 0H23l1-261h32v101c10-23 28-34 59-34zm-8 174c40 0 45-34 45-75 0-40-5-75-45-74-42 0-51 32-51 76 0 43 10 73 51 73" id="aB"/><path fill="#333" d="M114-163C36-179 61-72 57 0H25l-1-190h30c1 12-1 29 2 39 6-27 23-49 58-41v29" id="aC"/><g id="a"><use transform="matrix(0.03703703703703702,0,0,0.03703703703703702,0,0)" xlink:href="#ax"/><use transform="matrix(0.03703703703703702,0,0,0.03703703703703702,9.592592592592588,0)" xlink:href="#ay"/><use transform="matrix(0.03703703703703702,0,0,0.03703703703703702,16.999999999999993,0)" xlink:href="#az"/><use transform="matrix(0.03703703703703702,0,0,0.03703703703703702,23.666666666666657,0)" xlink:href="#aA"/><use transform="matrix(0.03703703703703702,0,0,0.03703703703703702,26.59259259259258,0)" xlink:href="#aB"/><use transform="matrix(0.03703703703703702,0,0,0.03703703703703702,33.999999999999986,0)" xlink:href="#aA"/><use transform="matrix(0.03703703703703702,0,0,0.03703703703703702,36.92592592592591,0)" xlink:href="#aC"/></g><path fill="#333" d="M24 0v-261h32V0H24" id="aD"/><path fill="#333" d="M100-194c62-1 85 37 85 99 1 63-27 99-86 99S16-35 15-95c0-66 28-99 85-99zM99-20c44 1 53-31 53-75 0-43-8-75-51-75s-53 32-53 75 10 74 51 75" id="aE"/><path fill="#333" d="M135-143c-3-34-86-38-87 0 15 53 115 12 119 90S17 21 10-45l28-5c4 36 97 45 98 0-10-56-113-15-118-90-4-57 82-63 122-42 12 7 21 19 24 35" id="aF"/><g id="b"><use transform="matrix(0.03703703703703702,0,0,0.03703703703703702,0,0)" xlink:href="#aD"/><use transform="matrix(0.03703703703703702,0,0,0.03703703703703702,2.9259259259259247,0)" xlink:href="#aE"/><use transform="matrix(0.03703703703703702,0,0,0.03703703703703702,10.333333333333329,0)" xlink:href="#aF"/></g><path fill="#333" d="M115-194c55 1 70 41 70 98S169 2 115 4C84 4 66-9 55-30l1 105H24l-1-265h31l2 30c10-21 28-34 59-34zm-8 174c40 0 45-34 45-75s-6-73-45-74c-42 0-51 32-51 76 0 43 10 73 51 73" id="aG"/><path fill="#333" d="M141-36C126-15 110 5 73 4 37 3 15-17 15-53c-1-64 63-63 125-63 3-35-9-54-41-54-24 1-41 7-42 31l-33-3c5-37 33-52 76-52 45 0 72 20 72 64v82c-1 20 7 32 28 27v20c-31 9-61-2-59-35zM48-53c0 20 12 33 32 33 41-3 63-29 60-74-43 2-92-5-92 41" id="aH"/><path fill="#333" d="M141-36C126-15 110 5 73 4 37 3 15-17 15-53c-1-64 63-63 125-63 3-35-9-54-41-54-24 1-41 7-42 31l-33-3c5-37 33-52 76-52 45 0 72 20 72 64v82c-1 20 7 32 28 27v20c-31 9-61-2-59-35zM48-53c0 20 12 33 32 33 41-3 63-29 60-74-43 2-92-5-92 41zm25-158c8-23 27-35 38-54h36v5l-58 49H73" id="aI"/><path fill="#333" d="M210-169c-67 3-38 105-44 169h-31v-121c0-29-5-50-35-48C34-165 62-65 56 0H25l-1-190h30c1 10-1 24 2 32 10-44 99-50 107 0 11-21 27-35 58-36 85-2 47 119 55 194h-31v-121c0-29-5-49-35-48" id="aJ"/><path fill="#333" d="M59-47c-2 24 18 29 38 22v24C64 9 27 4 27-40v-127H5v-23h24l9-43h21v43h35v23H59v120" id="aK"/><g id="c"><use transform="matrix(0.03703703703703702,0,0,0.03703703703703702,0,0)" xlink:href="#aG"/><use transform="matrix(0.03703703703703702,0,0,0.03703703703703702,7.407407407407404,0)" xlink:href="#aH"/><use transform="matrix(0.03703703703703702,0,0,0.03703703703703702,14.814814814814808,0)" xlink:href="#aC"/><use transform="matrix(0.03703703703703702,0,0,0.03703703703703702,19.222222222222214,0)" xlink:href="#aI"/><use transform="matrix(0.03703703703703702,0,0,0.03703703703703702,26.62962962962962,0)" xlink:href="#aJ"/><use transform="matrix(0.03703703703703702,0,0,0.03703703703703702,37.70370370370369,0)" xlink:href="#ay"/><use transform="matrix(0.03703703703703702,0,0,0.03703703703703702,45.11111111111109,0)" xlink:href="#aK"/><use transform="matrix(0.03703703703703702,0,0,0.03703703703703702,48.814814814814795,0)" xlink:href="#aC"/><use transform="matrix(0.03703703703703702,0,0,0.03703703703703702,53.2222222222222,0)" xlink:href="#aE"/><use transform="matrix(0.03703703703703702,0,0,0.03703703703703702,60.629629629629605,0)" xlink:href="#aF"/></g><path fill="#333" d="M107 61C57 61 25 39 23-9c-2-65 71-58 78-115h30c1 64-76 54-76 114 0 30 21 42 52 43 32 0 53-17 56-46l32 2c-6 46-36 72-88 72zm26-251v35H99v-35h34" id="aL"/><path fill="#333" d="M185-189c-5-48-123-54-124 2 14 75 158 14 163 119 3 78-121 87-175 55-17-10-28-26-33-46l33-7c5 56 141 63 141-1 0-78-155-14-162-118-5-82 145-84 179-34 5 7 8 16 11 25" id="aM"/><g id="d"><use transform="matrix(0.03703703703703702,0,0,0.03703703703703702,0,0)" xlink:href="#aL"/><use transform="matrix(0.03703703703703702,0,0,0.03703703703703702,8.111111111111107,0)" xlink:href="#aM"/><use transform="matrix(0.03703703703703702,0,0,0.03703703703703702,16.999999999999993,0)" xlink:href="#ay"/></g><path fill="#333" d="M145-31C134-9 116 4 85 4 32 4 16-35 15-94c0-59 17-99 70-100 32-1 48 14 60 33 0-11-1-24 2-32h30l-1 268h-32zM93-21c41 0 51-33 51-76s-8-73-50-73c-40 0-46 35-46 75s5 74 45 74" id="aN"/><path fill="#333" d="M84 4C-5 8 30-112 23-190h32v120c0 31 7 50 39 49 72-2 45-101 50-169h31l1 190h-30c-1-10 1-25-2-33-11 22-28 36-60 37" id="aO"/><g id="e"><use transform="matrix(0.03703703703703702,0,0,0.03703703703703702,0,0)" xlink:href="#aN"/><use transform="matrix(0.03703703703703702,0,0,0.03703703703703702,7.407407407407404,0)" xlink:href="#aO"/><use transform="matrix(0.03703703703703702,0,0,0.03703703703703702,14.814814814814808,0)" xlink:href="#aA"/><use transform="matrix(0.03703703703703702,0,0,0.03703703703703702,17.740740740740733,0)" xlink:href="#ay"/><use transform="matrix(0.03703703703703702,0,0,0.03703703703703702,25.148148148148138,0)" xlink:href="#aC"/><use transform="matrix(0.03703703703703702,0,0,0.03703703703703702,29.555555555555543,0)" xlink:href="#ay"/></g><path fill="#333" d="M117-194c89-4 53 116 60 194h-32v-121c0-31-8-49-39-48C34-167 62-67 57 0H25l-1-190h30c1 10-1 24 2 32 11-22 29-35 61-36" id="aP"/><g id="f"><use transform="matrix(0.03703703703703702,0,0,0.03703703703703702,0,0)" xlink:href="#az"/><use transform="matrix(0.03703703703703702,0,0,0.03703703703703702,6.666666666666663,0)" xlink:href="#aE"/><use transform="matrix(0.03703703703703702,0,0,0.03703703703703702,14.074074074074067,0)" xlink:href="#aP"/><use transform="matrix(0.03703703703703702,0,0,0.03703703703703702,21.481481481481474,0)" xlink:href="#aF"/><use transform="matrix(0.03703703703703702,0,0,0.03703703703703702,28.148148148148135,0)" xlink:href="#aO"/><use transform="matrix(0.03703703703703702,0,0,0.03703703703703702,35.555555555555536,0)" xlink:href="#aD"/><use transform="matrix(0.03703703703703702,0,0,0.03703703703703702,38.48148148148146,0)" xlink:href="#aK"/><use transform="matrix(0.03703703703703702,0,0,0.03703703703703702,42.18518518518516,0)" xlink:href="#aH"/><use transform="matrix(0.03703703703703702,0,0,0.03703703703703702,49.59259259259256,0)" xlink:href="#aC"/></g><use transform="matrix(0.03703703703703702,0,0,0.03703703703703702,0,0)" xlink:href="#aH" id="g"/><g id="h"><use transform="matrix(0.03703703703703702,0,0,0.03703703703703702,0,0)" xlink:href="#ax"/><use transform="matrix(0.03703703703703702,0,0,0.03703703703703702,9.592592592592588,0)" xlink:href="#ay"/><use transform="matrix(0.03703703703703702,0,0,0.03703703703703702,16.999999999999993,0)" xlink:href="#aH"/><use transform="matrix(0.03703703703703702,0,0,0.03703703703703702,24.407407407407398,0)" xlink:href="#aD"/></g><path fill="#333" d="M127-220V0H93v-220H8v-28h204v28h-85" id="aQ"/><g id="i"><use transform="matrix(0.03703703703703702,0,0,0.03703703703703702,0,0)" xlink:href="#aQ"/><use transform="matrix(0.03703703703703702,0,0,0.03703703703703702,7.629629629629626,0)" xlink:href="#aA"/><use transform="matrix(0.03703703703703702,0,0,0.03703703703703702,10.555555555555552,0)" xlink:href="#aJ"/><use transform="matrix(0.03703703703703702,0,0,0.03703703703703702,21.62962962962962,0)" xlink:href="#ay"/></g><path fill="#333" d="M30-248c118-7 216 8 213 122C240-48 200 0 122 0H30v-248zM63-27c89 8 146-16 146-99s-60-101-146-95v194" id="aR"/><g id="j"><use transform="matrix(0.03703703703703702,0,0,0.03703703703703702,0,0)" xlink:href="#aR"/><use transform="matrix(0.03703703703703702,0,0,0.03703703703703702,9.592592592592588,0)" xlink:href="#aH"/><use transform="matrix(0.03703703703703702,0,0,0.03703703703703702,16.999999999999993,0)" xlink:href="#aK"/><use transform="matrix(0.03703703703703702,0,0,0.03703703703703702,20.703703703703695,0)" xlink:href="#aH"/><use transform="matrix(0.03703703703703702,0,0,0.03703703703703702,28.1111111111111,0)" xlink:href="#aB"/><use transform="matrix(0.03703703703703702,0,0,0.03703703703703702,35.518518518518505,0)" xlink:href="#aH"/><use transform="matrix(0.03703703703703702,0,0,0.03703703703703702,42.92592592592591,0)" xlink:href="#aF"/><use transform="matrix(0.03703703703703702,0,0,0.03703703703703702,49.592592592592574,0)" xlink:href="#ay"/></g><use transform="matrix(0.03703703703703702,0,0,0.03703703703703702,0,0)" xlink:href="#aE" id="k"/><path fill="#333" d="M63-220v92h138v28H63V0H30v-248h175v28H63" id="aS"/><path fill="#333" d="M103-251c84 0 111 97 45 133-19 10-37 24-39 52H78c0-63 77-55 77-114 0-30-21-42-52-43-32 0-53 17-56 46l-32-2c7-45 34-72 88-72zM77 0v-35h34V0H77" id="aT"/><g id="l"><use transform="matrix(0.03703703703703702,0,0,0.03703703703703702,0,0)" xlink:href="#aS"/><use transform="matrix(0.03703703703703702,0,0,0.03703703703703702,8.111111111111107,0)" xlink:href="#aA"/><use transform="matrix(0.03703703703703702,0,0,0.03703703703703702,11.037037037037031,0)" xlink:href="#aC"/><use transform="matrix(0.03703703703703702,0,0,0.03703703703703702,15.444444444444436,0)" xlink:href="#ay"/><use transform="matrix(0.03703703703703702,0,0,0.03703703703703702,22.85185185185184,0)" xlink:href="#aF"/><use transform="matrix(0.03703703703703702,0,0,0.03703703703703702,29.518518518518505,0)" xlink:href="#aK"/><use transform="matrix(0.03703703703703702,0,0,0.03703703703703702,33.22222222222221,0)" xlink:href="#aE"/><use transform="matrix(0.03703703703703702,0,0,0.03703703703703702,40.62962962962961,0)" xlink:href="#aC"/><use transform="matrix(0.03703703703703702,0,0,0.03703703703703702,45.03703703703702,0)" xlink:href="#ay"/><use transform="matrix(0.03703703703703702,0,0,0.03703703703703702,52.44444444444442,0)" xlink:href="#aT"/></g><path fill="#333" d="M160-131c35 5 61 23 61 61C221 17 115-2 30 0v-248c76 3 177-17 177 60 0 33-19 50-47 57zm-97-11c50-1 110 9 110-42 0-47-63-36-110-37v79zm0 115c55-2 124 14 124-45 0-56-70-42-124-44v89" id="aU"/><g id="m"><use transform="matrix(0.03703703703703702,0,0,0.03703703703703702,0,0)" xlink:href="#aU"/><use transform="matrix(0.03703703703703702,0,0,0.03703703703703702,8.888888888888886,0)" xlink:href="#aO"/><use transform="matrix(0.03703703703703702,0,0,0.03703703703703702,16.29629629629629,0)" xlink:href="#aF"/><use transform="matrix(0.03703703703703702,0,0,0.03703703703703702,22.962962962962955,0)" xlink:href="#az"/><use transform="matrix(0.03703703703703702,0,0,0.03703703703703702,29.629629629629623,0)" xlink:href="#aH"/><use transform="matrix(0.03703703703703702,0,0,0.03703703703703702,37.037037037037024,0)" xlink:href="#aC"/></g><g id="n"><use transform="matrix(0.03703703703703702,0,0,0.03703703703703702,0,0)" xlink:href="#aD"/><use transform="matrix(0.03703703703703702,0,0,0.03703703703703702,2.9259259259259247,0)" xlink:href="#aH"/></g><g id="o"><use transform="matrix(0.03703703703703702,0,0,0.03703703703703702,0,0)" xlink:href="#aC"/><use transform="matrix(0.03703703703703702,0,0,0.03703703703703702,4.407407407407406,0)" xlink:href="#aO"/><use transform="matrix(0.03703703703703702,0,0,0.03703703703703702,11.81481481481481,0)" xlink:href="#aK"/><use transform="matrix(0.03703703703703702,0,0,0.03703703703703702,15.518518518518512,0)" xlink:href="#aH"/></g><g id="p"><use transform="matrix(0.03703703703703702,0,0,0.03703703703703702,0,0)" xlink:href="#aN"/><use transform="matrix(0.03703703703703702,0,0,0.03703703703703702,7.407407407407404,0)" xlink:href="#aO"/><use transform="matrix(0.03703703703703702,0,0,0.03703703703703702,14.814814814814808,0)" xlink:href="#ay"/></g><g id="q"><use transform="matrix(0.03703703703703702,0,0,0.03703703703703702,0,0)" xlink:href="#aF"/><use transform="matrix(0.03703703703703702,0,0,0.03703703703703702,6.666666666666663,0)" xlink:href="#ay"/></g><g id="r"><use transform="matrix(0.03703703703703702,0,0,0.03703703703703702,0,0)" xlink:href="#aN"/><use transform="matrix(0.03703703703703702,0,0,0.03703703703703702,7.407407407407404,0)" xlink:href="#aO"/><use transform="matrix(0.03703703703703702,0,0,0.03703703703703702,14.814814814814808,0)" xlink:href="#aA"/><use transform="matrix(0.03703703703703702,0,0,0.03703703703703702,17.740740740740733,0)" xlink:href="#ay"/><use transform="matrix(0.03703703703703702,0,0,0.03703703703703702,25.148148148148138,0)" xlink:href="#aC"/><use transform="matrix(0.03703703703703702,0,0,0.03703703703703702,29.555555555555543,0)" xlink:href="#ay"/></g><g id="s"><use transform="matrix(0.03703703703703702,0,0,0.03703703703703702,0,0)" xlink:href="#ay"/><use transform="matrix(0.03703703703703702,0,0,0.03703703703703702,7.407407407407404,0)" xlink:href="#aP"/><use transform="matrix(0.03703703703703702,0,0,0.03703703703703702,14.814814814814808,0)" xlink:href="#aK"/><use transform="matrix(0.03703703703703702,0,0,0.03703703703703702,18.51851851851851,0)" xlink:href="#aC"/><use transform="matrix(0.03703703703703702,0,0,0.03703703703703702,22.925925925925913,0)" xlink:href="#ay"/></g><g id="t"><use transform="matrix(0.03703703703703702,0,0,0.03703703703703702,0,0)" xlink:href="#aD"/><use transform="matrix(0.03703703703703702,0,0,0.03703703703703702,2.9259259259259247,0)" xlink:href="#aH"/><use transform="matrix(0.03703703703703702,0,0,0.03703703703703702,10.333333333333329,0)" xlink:href="#aF"/></g><g id="u"><use transform="matrix(0.03703703703703702,0,0,0.03703703703703702,0,0)" xlink:href="#aC"/><use transform="matrix(0.03703703703703702,0,0,0.03703703703703702,4.407407407407406,0)" xlink:href="#aO"/><use transform="matrix(0.03703703703703702,0,0,0.03703703703703702,11.81481481481481,0)" xlink:href="#aK"/><use transform="matrix(0.03703703703703702,0,0,0.03703703703703702,15.518518518518512,0)" xlink:href="#aH"/><use transform="matrix(0.03703703703703702,0,0,0.03703703703703702,22.925925925925917,0)" xlink:href="#aF"/></g><path fill="#333" d="M101-234c-31-9-42 10-38 44h38v23H63V0H32v-167H5v-23h27c-7-52 17-82 69-68v24" id="aV"/><path fill="#333" d="M85-194c31 0 48 13 60 33l-1-100h32l1 261h-30c-2-10 0-23-3-31C134-8 116 4 85 4 32 4 16-35 15-94c0-66 23-100 70-100zm9 24c-40 0-46 34-46 75 0 40 6 74 45 74 42 0 51-32 51-76 0-42-9-74-50-73" id="aW"/><g id="v"><use transform="matrix(0.03703703703703702,0,0,0.03703703703703702,0,0)" xlink:href="#ay"/><use transform="matrix(0.03703703703703702,0,0,0.03703703703703702,7.407407407407404,0)" xlink:href="#aF"/><use transform="matrix(0.03703703703703702,0,0,0.03703703703703702,14.074074074074067,0)" xlink:href="#aG"/><use transform="matrix(0.03703703703703702,0,0,0.03703703703703702,21.481481481481474,0)" xlink:href="#ay"/><use transform="matrix(0.03703703703703702,0,0,0.03703703703703702,28.888888888888875,0)" xlink:href="#az"/><use transform="matrix(0.03703703703703702,0,0,0.03703703703703702,35.555555555555536,0)" xlink:href="#aA"/><use transform="matrix(0.03703703703703702,0,0,0.03703703703703702,38.48148148148146,0)" xlink:href="#aV"/><use transform="matrix(0.03703703703703702,0,0,0.03703703703703702,42.18518518518516,0)" xlink:href="#aA"/><use transform="matrix(0.03703703703703702,0,0,0.03703703703703702,45.111111111111086,0)" xlink:href="#az"/><use transform="matrix(0.03703703703703702,0,0,0.03703703703703702,51.77777777777775,0)" xlink:href="#aH"/><use transform="matrix(0.03703703703703702,0,0,0.03703703703703702,59.18518518518515,0)" xlink:href="#aW"/><use transform="matrix(0.03703703703703702,0,0,0.03703703703703702,66.59259259259255,0)" xlink:href="#aH"/><use transform="matrix(0.03703703703703702,0,0,0.03703703703703702,73.99999999999996,0)" xlink:href="#aF"/></g><g id="w"><use transform="matrix(0.03703703703703702,0,0,0.03703703703703702,0,0)" xlink:href="#ax"/><use transform="matrix(0.03703703703703702,0,0,0.03703703703703702,9.592592592592588,0)" xlink:href="#ay"/><use transform="matrix(0.03703703703703702,0,0,0.03703703703703702,16.999999999999993,0)" xlink:href="#aH"/><use transform="matrix(0.03703703703703702,0,0,0.03703703703703702,24.407407407407398,0)" xlink:href="#aD"/></g><g id="x"><use transform="matrix(0.03703703703703702,0,0,0.03703703703703702,0,0)" xlink:href="#aR"/><use transform="matrix(0.03703703703703702,0,0,0.03703703703703702,9.592592592592588,0)" xlink:href="#aH"/><use transform="matrix(0.03703703703703702,0,0,0.03703703703703702,16.999999999999993,0)" xlink:href="#aK"/><use transform="matrix(0.03703703703703702,0,0,0.03703703703703702,20.703703703703695,0)" xlink:href="#aH"/><use transform="matrix(0.03703703703703702,0,0,0.03703703703703702,28.1111111111111,0)" xlink:href="#aB"/><use transform="matrix(0.03703703703703702,0,0,0.03703703703703702,35.518518518518505,0)" xlink:href="#aH"/><use transform="matrix(0.03703703703703702,0,0,0.03703703703703702,42.92592592592591,0)" xlink:href="#aF"/><use transform="matrix(0.03703703703703702,0,0,0.03703703703703702,49.592592592592574,0)" xlink:href="#ay"/></g><g id="y"><use transform="matrix(0.03703703703703702,0,0,0.03703703703703702,0,0)" xlink:href="#ay"/><use transform="matrix(0.03703703703703702,0,0,0.03703703703703702,7.407407407407404,0)" xlink:href="#aP"/></g><g id="z"><use transform="matrix(0.03703703703703702,0,0,0.03703703703703702,0,0)" xlink:href="#ay"/><use transform="matrix(0.03703703703703702,0,0,0.03703703703703702,7.407407407407404,0)" xlink:href="#aD"/></g><path fill="#333" d="M106-169C34-169 62-67 57 0H25v-261h32l-1 103c12-21 28-36 61-36 89 0 53 116 60 194h-32v-121c2-32-8-49-39-48" id="aX"/><path fill="#333" d="M108 0H70L1-190h34L89-25l56-165h34" id="aY"/><g id="A"><use transform="matrix(0.03703703703703702,0,0,0.03703703703703702,0,0)" xlink:href="#aH"/><use transform="matrix(0.03703703703703702,0,0,0.03703703703703702,7.407407407407404,0)" xlink:href="#aC"/><use transform="matrix(0.03703703703703702,0,0,0.03703703703703702,11.81481481481481,0)" xlink:href="#az"/><use transform="matrix(0.03703703703703702,0,0,0.03703703703703702,18.481481481481474,0)" xlink:href="#aX"/><use transform="matrix(0.03703703703703702,0,0,0.03703703703703702,25.88888888888888,0)" xlink:href="#aA"/><use transform="matrix(0.03703703703703702,0,0,0.03703703703703702,28.814814814814802,0)" xlink:href="#aY"/><use transform="matrix(0.03703703703703702,0,0,0.03703703703703702,35.48148148148147,0)" xlink:href="#aE"/></g><g id="B"><use transform="matrix(0.03703703703703702,0,0,0.03703703703703702,0,0)" xlink:href="#aW"/><use transform="matrix(0.03703703703703702,0,0,0.03703703703703702,7.407407407407404,0)" xlink:href="#ay"/></g><path fill="#333" d="M177-190C167-65 218 103 67 71c-23-6-38-20-44-43l32-5c15 47 100 32 89-28v-30C133-14 115 1 83 1 29 1 15-40 15-95c0-56 16-97 71-98 29-1 48 16 59 35 1-10 0-23 2-32h30zM94-22c36 0 50-32 50-73 0-42-14-75-50-75-39 0-46 34-46 75s6 73 46 73" id="aZ"/><path fill="#333" d="M100-194c62-1 85 37 85 99 1 63-27 99-86 99S16-35 15-95c0-66 28-99 85-99zM99-20c44 1 53-31 53-75 0-43-8-75-51-75s-53 32-53 75 10 74 51 75zM76-211c8-23 27-35 38-54h36v5l-58 49H76" id="ba"/><g id="C"><use transform="matrix(0.03703703703703702,0,0,0.03703703703703702,0,0)" xlink:href="#az"/><use transform="matrix(0.03703703703703702,0,0,0.03703703703703702,6.666666666666663,0)" xlink:href="#aE"/><use transform="matrix(0.03703703703703702,0,0,0.03703703703703702,14.074074074074067,0)" xlink:href="#aP"/><use transform="matrix(0.03703703703703702,0,0,0.03703703703703702,21.481481481481474,0)" xlink:href="#aV"/><use transform="matrix(0.03703703703703702,0,0,0.03703703703703702,25.185185185185173,0)" xlink:href="#aA"/><use transform="matrix(0.03703703703703702,0,0,0.03703703703703702,28.111111111111097,0)" xlink:href="#aZ"/><use transform="matrix(0.03703703703703702,0,0,0.03703703703703702,35.5185185185185,0)" xlink:href="#aO"/><use transform="matrix(0.03703703703703702,0,0,0.03703703703703702,42.9259259259259,0)" xlink:href="#aC"/><use transform="matrix(0.03703703703703702,0,0,0.03703703703703702,47.33333333333331,0)" xlink:href="#aH"/><use transform="matrix(0.03703703703703702,0,0,0.03703703703703702,54.74074074074071,0)" xlink:href="#az"/><use transform="matrix(0.03703703703703702,0,0,0.03703703703703702,61.40740740740737,0)" xlink:href="#aA"/><use transform="matrix(0.03703703703703702,0,0,0.03703703703703702,64.3333333333333,0)" xlink:href="#ba"/><use transform="matrix(0.03703703703703702,0,0,0.03703703703703702,71.7407407407407,0)" xlink:href="#aP"/></g><path fill="#333" d="M30 0v-248h33v221h125V0H30" id="bb"/><g id="D"><use transform="matrix(0.03703703703703702,0,0,0.03703703703703702,0,0)" xlink:href="#aL"/><use transform="matrix(0.03703703703703702,0,0,0.03703703703703702,8.111111111111107,0)" xlink:href="#bb"/><use transform="matrix(0.03703703703703702,0,0,0.03703703703703702,15.518518518518512,0)" xlink:href="#aH"/></g><g id="E"><use transform="matrix(0.03703703703703702,0,0,0.03703703703703702,0,0)" xlink:href="#ay"/><use transform="matrix(0.03703703703703702,0,0,0.03703703703703702,7.407407407407404,0)" xlink:href="#aP"/><use transform="matrix(0.03703703703703702,0,0,0.03703703703703702,14.814814814814808,0)" xlink:href="#az"/><use transform="matrix(0.03703703703703702,0,0,0.03703703703703702,21.481481481481474,0)" xlink:href="#aO"/><use transform="matrix(0.03703703703703702,0,0,0.03703703703703702,28.888888888888875,0)" xlink:href="#ay"/><use transform="matrix(0.03703703703703702,0,0,0.03703703703703702,36.296296296296276,0)" xlink:href="#aP"/><use transform="matrix(0.03703703703703702,0,0,0.03703703703703702,43.70370370370369,0)" xlink:href="#aK"/><use transform="matrix(0.03703703703703702,0,0,0.03703703703703702,47.40740740740739,0)" xlink:href="#aC"/><use transform="matrix(0.03703703703703702,0,0,0.03703703703703702,51.81481481481478,0)" xlink:href="#aH"/></g><g id="F"><use transform="matrix(0.03703703703703702,0,0,0.03703703703703702,0,0)" xlink:href="#ay"/><use transform="matrix(0.03703703703703702,0,0,0.03703703703703702,7.407407407407404,0)" xlink:href="#aF"/><use transform="matrix(0.03703703703703702,0,0,0.03703703703703702,14.074074074074067,0)" xlink:href="#aG"/><use transform="matrix(0.03703703703703702,0,0,0.03703703703703702,21.481481481481474,0)" xlink:href="#ay"/><use transform="matrix(0.03703703703703702,0,0,0.03703703703703702,28.888888888888875,0)" xlink:href="#az"/><use transform="matrix(0.03703703703703702,0,0,0.03703703703703702,35.555555555555536,0)" xlink:href="#aA"/><use transform="matrix(0.03703703703703702,0,0,0.03703703703703702,38.48148148148146,0)" xlink:href="#aV"/><use transform="matrix(0.03703703703703702,0,0,0.03703703703703702,42.18518518518516,0)" xlink:href="#aA"/><use transform="matrix(0.03703703703703702,0,0,0.03703703703703702,45.111111111111086,0)" xlink:href="#az"/><use transform="matrix(0.03703703703703702,0,0,0.03703703703703702,51.77777777777775,0)" xlink:href="#aH"/><use transform="matrix(0.03703703703703702,0,0,0.03703703703703702,59.18518518518515,0)" xlink:href="#aW"/><use transform="matrix(0.03703703703703702,0,0,0.03703703703703702,66.59259259259255,0)" xlink:href="#aH"/><use transform="matrix(0.03703703703703702,0,0,0.03703703703703702,73.99999999999996,0)" xlink:href="#aT"/></g><path fill="#333" d="M9 0v-24l116-142H16v-24h144v24L44-24h123V0H9" id="bc"/><g id="G"><use transform="matrix(0.03703703703703702,0,0,0.03703703703703702,0,0)" xlink:href="#ax"/><use transform="matrix(0.03703703703703702,0,0,0.03703703703703702,9.592592592592588,0)" xlink:href="#ay"/><use transform="matrix(0.03703703703703702,0,0,0.03703703703703702,16.999999999999993,0)" xlink:href="#aH"/><use transform="matrix(0.03703703703703702,0,0,0.03703703703703702,24.407407407407398,0)" xlink:href="#aD"/><use transform="matrix(0.03703703703703702,0,0,0.03703703703703702,27.33333333333332,0)" xlink:href="#aA"/><use transform="matrix(0.03703703703703702,0,0,0.03703703703703702,30.259259259259245,0)" xlink:href="#bc"/><use transform="matrix(0.03703703703703702,0,0,0.03703703703703702,36.92592592592591,0)" xlink:href="#aH"/><use transform="matrix(0.03703703703703702,0,0,0.03703703703703702,44.333333333333314,0)" xlink:href="#aC"/></g><g id="H"><use transform="matrix(0.03703703703703702,0,0,0.03703703703703702,0,0)" xlink:href="#az"/><use transform="matrix(0.03703703703703702,0,0,0.03703703703703702,6.666666666666663,0)" xlink:href="#aE"/><use transform="matrix(0.03703703703703702,0,0,0.03703703703703702,14.074074074074067,0)" xlink:href="#aP"/><use transform="matrix(0.03703703703703702,0,0,0.03703703703703702,21.481481481481474,0)" xlink:href="#aF"/><use transform="matrix(0.03703703703703702,0,0,0.03703703703703702,28.148148148148135,0)" xlink:href="#aO"/><use transform="matrix(0.03703703703703702,0,0,0.03703703703703702,35.555555555555536,0)" xlink:href="#aD"/><use transform="matrix(0.03703703703703702,0,0,0.03703703703703702,38.48148148148146,0)" xlink:href="#aK"/><use transform="matrix(0.03703703703703702,0,0,0.03703703703703702,42.18518518518516,0)" xlink:href="#aH"/></g><g id="I"><use transform="matrix(0.03703703703703702,0,0,0.03703703703703702,0,0)" xlink:href="#aW"/><use transform="matrix(0.03703703703703702,0,0,0.03703703703703702,7.407407407407404,0)" xlink:href="#aA"/><use transform="matrix(0.03703703703703702,0,0,0.03703703703703702,10.333333333333329,0)" xlink:href="#aC"/><use transform="matrix(0.03703703703703702,0,0,0.03703703703703702,14.740740740740735,0)" xlink:href="#ay"/><use transform="matrix(0.03703703703703702,0,0,0.03703703703703702,22.148148148148138,0)" xlink:href="#az"/><use transform="matrix(0.03703703703703702,0,0,0.03703703703703702,28.814814814814802,0)" xlink:href="#aK"/><use transform="matrix(0.03703703703703702,0,0,0.03703703703703702,32.518518518518505,0)" xlink:href="#aH"/></g><g id="J"><use transform="matrix(0.03703703703703702,0,0,0.03703703703703702,0,0)" xlink:href="#aQ"/><use transform="matrix(0.03703703703703702,0,0,0.03703703703703702,7.629629629629626,0)" xlink:href="#aA"/><use transform="matrix(0.03703703703703702,0,0,0.03703703703703702,10.555555555555552,0)" xlink:href="#aJ"/><use transform="matrix(0.03703703703703702,0,0,0.03703703703703702,21.62962962962962,0)" xlink:href="#ay"/></g><g id="K"><use transform="matrix(0.03703703703703702,0,0,0.03703703703703702,0,0)" xlink:href="#aR"/><use transform="matrix(0.03703703703703702,0,0,0.03703703703703702,9.592592592592588,0)" xlink:href="#aH"/><use transform="matrix(0.03703703703703702,0,0,0.03703703703703702,16.999999999999993,0)" xlink:href="#aK"/><use transform="matrix(0.03703703703703702,0,0,0.03703703703703702,20.703703703703695,0)" xlink:href="#aH"/><use transform="matrix(0.03703703703703702,0,0,0.03703703703703702,28.1111111111111,0)" xlink:href="#aB"/><use transform="matrix(0.03703703703703702,0,0,0.03703703703703702,35.518518518518505,0)" xlink:href="#aH"/><use transform="matrix(0.03703703703703702,0,0,0.03703703703703702,42.92592592592591,0)" xlink:href="#aF"/><use transform="matrix(0.03703703703703702,0,0,0.03703703703703702,49.592592592592574,0)" xlink:href="#ay"/></g><g id="L"><use transform="matrix(0.03703703703703702,0,0,0.03703703703703702,0,0)" xlink:href="#ax"/><use transform="matrix(0.03703703703703702,0,0,0.03703703703703702,9.592592592592588,0)" xlink:href="#ay"/><use transform="matrix(0.03703703703703702,0,0,0.03703703703703702,16.999999999999993,0)" xlink:href="#aK"/><use transform="matrix(0.03703703703703702,0,0,0.03703703703703702,20.703703703703695,0)" xlink:href="#aE"/><use transform="matrix(0.03703703703703702,0,0,0.03703703703703702,28.1111111111111,0)" xlink:href="#aC"/><use transform="matrix(0.03703703703703702,0,0,0.03703703703703702,32.518518518518505,0)" xlink:href="#aP"/><use transform="matrix(0.03703703703703702,0,0,0.03703703703703702,39.92592592592591,0)" xlink:href="#aH"/><use transform="matrix(0.03703703703703702,0,0,0.03703703703703702,47.333333333333314,0)" xlink:href="#aC"/></g><g id="M"><use transform="matrix(0.03703703703703702,0,0,0.03703703703703702,0,0)" xlink:href="#aC"/><use transform="matrix(0.03703703703703702,0,0,0.03703703703703702,4.407407407407406,0)" xlink:href="#ay"/><use transform="matrix(0.03703703703703702,0,0,0.03703703703703702,11.81481481481481,0)" xlink:href="#aF"/><use transform="matrix(0.03703703703703702,0,0,0.03703703703703702,18.481481481481474,0)" xlink:href="#aO"/><use transform="matrix(0.03703703703703702,0,0,0.03703703703703702,25.88888888888888,0)" xlink:href="#aD"/><use transform="matrix(0.03703703703703702,0,0,0.03703703703703702,28.814814814814802,0)" xlink:href="#aK"/><use transform="matrix(0.03703703703703702,0,0,0.03703703703703702,32.518518518518505,0)" xlink:href="#aH"/><use transform="matrix(0.03703703703703702,0,0,0.03703703703703702,39.92592592592591,0)" xlink:href="#aW"/><use transform="matrix(0.03703703703703702,0,0,0.03703703703703702,47.333333333333314,0)" xlink:href="#aE"/></g><g id="N"><use transform="matrix(0.03703703703703702,0,0,0.03703703703703702,0,0)" xlink:href="#aW"/><use transform="matrix(0.03703703703703702,0,0,0.03703703703703702,7.407407407407404,0)" xlink:href="#ay"/></g><g id="O"><use transform="matrix(0.03703703703703702,0,0,0.03703703703703702,0,0)" xlink:href="#az"/><use transform="matrix(0.03703703703703702,0,0,0.03703703703703702,6.666666666666663,0)" xlink:href="#aE"/><use transform="matrix(0.03703703703703702,0,0,0.03703703703703702,14.074074074074067,0)" xlink:href="#aP"/><use transform="matrix(0.03703703703703702,0,0,0.03703703703703702,21.481481481481474,0)" xlink:href="#aF"/><use transform="matrix(0.03703703703703702,0,0,0.03703703703703702,28.148148148148135,0)" xlink:href="#aO"/><use transform="matrix(0.03703703703703702,0,0,0.03703703703703702,35.555555555555536,0)" xlink:href="#aD"/><use transform="matrix(0.03703703703703702,0,0,0.03703703703703702,38.48148148148146,0)" xlink:href="#aK"/><use transform="matrix(0.03703703703703702,0,0,0.03703703703703702,42.18518518518516,0)" xlink:href="#aH"/></g><path fill="#333" d="M197 0v-115H63V0H30v-248h33v105h134v-105h34V0h-34" id="bd"/><path fill="#333" d="M179-190L93 31C79 59 56 82 12 73V49c39 6 53-20 64-50L1-190h34L92-34l54-156h33" id="be"/><g id="P"><use transform="matrix(0.03703703703703702,0,0,0.03703703703703702,0,0)" xlink:href="#aL"/><use transform="matrix(0.03703703703703702,0,0,0.03703703703703702,8.111111111111107,0)" xlink:href="#bd"/><use transform="matrix(0.03703703703703702,0,0,0.03703703703703702,17.703703703703695,0)" xlink:href="#aH"/><use transform="matrix(0.03703703703703702,0,0,0.03703703703703702,25.1111111111111,0)" xlink:href="#be"/></g><g id="Q"><use transform="matrix(0.03703703703703702,0,0,0.03703703703703702,0,0)" xlink:href="#aA"/><use transform="matrix(0.03703703703703702,0,0,0.03703703703703702,2.9259259259259247,0)" xlink:href="#aP"/><use transform="matrix(0.03703703703703702,0,0,0.03703703703703702,10.333333333333329,0)" xlink:href="#aV"/><use transform="matrix(0.03703703703703702,0,0,0.03703703703703702,14.037037037037031,0)" xlink:href="#aE"/><use transform="matrix(0.03703703703703702,0,0,0.03703703703703702,21.444444444444436,0)" xlink:href="#aC"/><use transform="matrix(0.03703703703703702,0,0,0.03703703703703702,25.85185185185184,0)" xlink:href="#aJ"/><use transform="matrix(0.03703703703703702,0,0,0.03703703703703702,36.92592592592591,0)" xlink:href="#aH"/><use transform="matrix(0.03703703703703702,0,0,0.03703703703703702,44.333333333333314,0)" xlink:href="#az"/><use transform="matrix(0.03703703703703702,0,0,0.03703703703703702,50.99999999999998,0)" xlink:href="#aA"/><use transform="matrix(0.03703703703703702,0,0,0.03703703703703702,53.9259259259259,0)" xlink:href="#ba"/><use transform="matrix(0.03703703703703702,0,0,0.03703703703703702,61.33333333333331,0)" xlink:href="#aP"/></g><g id="R"><use transform="matrix(0.03703703703703702,0,0,0.03703703703703702,0,0)" xlink:href="#aH"/><use transform="matrix(0.03703703703703702,0,0,0.03703703703703702,7.407407407407404,0)" xlink:href="#aD"/><use transform="matrix(0.03703703703703702,0,0,0.03703703703703702,10.333333333333329,0)" xlink:href="#aJ"/><use transform="matrix(0.03703703703703702,0,0,0.03703703703703702,21.407407407407398,0)" xlink:href="#aH"/><use transform="matrix(0.03703703703703702,0,0,0.03703703703703702,28.814814814814802,0)" xlink:href="#az"/><use transform="matrix(0.03703703703703702,0,0,0.03703703703703702,35.48148148148147,0)" xlink:href="#ay"/><use transform="matrix(0.03703703703703702,0,0,0.03703703703703702,42.88888888888887,0)" xlink:href="#aP"/><use transform="matrix(0.03703703703703702,0,0,0.03703703703703702,50.296296296296276,0)" xlink:href="#aH"/><use transform="matrix(0.03703703703703702,0,0,0.03703703703703702,57.70370370370368,0)" xlink:href="#aW"/><use transform="matrix(0.03703703703703702,0,0,0.03703703703703702,65.11111111111109,0)" xlink:href="#aH"/></g><g id="S"><use transform="matrix(0.03703703703703702,0,0,0.03703703703703702,0,0)" xlink:href="#ay"/><use transform="matrix(0.03703703703703702,0,0,0.03703703703703702,7.407407407407404,0)" xlink:href="#aP"/></g><path fill="#333" d="M100-194c63 0 86 42 84 106H49c0 40 14 67 53 68 26 1 43-12 49-29l28 8c-11 28-37 45-77 45C44 4 14-33 15-96c1-61 26-98 85-98zm52 81c6-60-76-77-97-28-3 7-6 17-6 28h103zm-74-98c8-23 27-35 38-54h36v5l-58 49H78" id="bf"/><g id="T"><use transform="matrix(0.03703703703703702,0,0,0.03703703703703702,0,0)" xlink:href="#az"/><use transform="matrix(0.03703703703703702,0,0,0.03703703703703702,6.666666666666663,0)" xlink:href="#aH"/><use transform="matrix(0.03703703703703702,0,0,0.03703703703703702,14.074074074074067,0)" xlink:href="#az"/><use transform="matrix(0.03703703703703702,0,0,0.03703703703703702,20.740740740740733,0)" xlink:href="#aX"/><use transform="matrix(0.03703703703703702,0,0,0.03703703703703702,28.148148148148135,0)" xlink:href="#bf"/></g><g id="U"><use transform="matrix(0.03703703703703702,0,0,0.03703703703703702,0,0)" xlink:href="#ay"/><use transform="matrix(0.03703703703703702,0,0,0.03703703703703702,7.407407407407404,0)" xlink:href="#aF"/><use transform="matrix(0.03703703703703702,0,0,0.03703703703703702,14.074074074074067,0)" xlink:href="#aH"/></g><g id="V"><use transform="matrix(0.03703703703703702,0,0,0.03703703703703702,0,0)" xlink:href="#aC"/><use transform="matrix(0.03703703703703702,0,0,0.03703703703703702,4.407407407407406,0)" xlink:href="#aO"/><use transform="matrix(0.03703703703703702,0,0,0.03703703703703702,11.81481481481481,0)" xlink:href="#aK"/><use transform="matrix(0.03703703703703702,0,0,0.03703703703703702,15.518518518518512,0)" xlink:href="#aH"/></g><path fill="#333" d="M30 0v-248h187v28H63v79h144v27H63v87h162V0H30" id="bg"/><path fill="#333" d="M141 0L90-78 38 0H4l68-98-65-92h35l48 74 47-74h35l-64 92 68 98h-35" id="bh"/><g id="W"><use transform="matrix(0.03703703703703702,0,0,0.03703703703703702,0,0)" xlink:href="#bg"/><use transform="matrix(0.03703703703703702,0,0,0.03703703703703702,8.888888888888886,0)" xlink:href="#bh"/><use transform="matrix(0.03703703703703702,0,0,0.03703703703703702,15.555555555555552,0)" xlink:href="#aK"/><use transform="matrix(0.03703703703703702,0,0,0.03703703703703702,19.259259259259252,0)" xlink:href="#aC"/><use transform="matrix(0.03703703703703702,0,0,0.03703703703703702,23.666666666666657,0)" xlink:href="#aH"/><use transform="matrix(0.03703703703703702,0,0,0.03703703703703702,31.074074074074062,0)" xlink:href="#ay"/><use transform="matrix(0.03703703703703702,0,0,0.03703703703703702,38.48148148148147,0)" xlink:href="#aC"/></g><g id="X"><use transform="matrix(0.03703703703703702,0,0,0.03703703703703702,0,0)" xlink:href="#az"/><use transform="matrix(0.03703703703703702,0,0,0.03703703703703702,6.666666666666663,0)" xlink:href="#aH"/><use transform="matrix(0.03703703703703702,0,0,0.03703703703703702,14.074074074074067,0)" xlink:href="#az"/><use transform="matrix(0.03703703703703702,0,0,0.03703703703703702,20.740740740740733,0)" xlink:href="#aX"/><use transform="matrix(0.03703703703703702,0,0,0.03703703703703702,28.148148148148135,0)" xlink:href="#bf"/></g><g id="Y"><use transform="matrix(0.03703703703703702,0,0,0.03703703703703702,0,0)" xlink:href="#aD"/><use transform="matrix(0.03703703703703702,0,0,0.03703703703703702,2.9259259259259247,0)" xlink:href="#aH"/></g><g id="Z"><use transform="matrix(0.03703703703703702,0,0,0.03703703703703702,0,0)" xlink:href="#aA"/><use transform="matrix(0.03703703703703702,0,0,0.03703703703703702,2.9259259259259247,0)" xlink:href="#aP"/><use transform="matrix(0.03703703703703702,0,0,0.03703703703703702,10.333333333333329,0)" xlink:href="#aV"/><use transform="matrix(0.03703703703703702,0,0,0.03703703703703702,14.037037037037031,0)" xlink:href="#aE"/><use transform="matrix(0.03703703703703702,0,0,0.03703703703703702,21.444444444444436,0)" xlink:href="#aC"/><use transform="matrix(0.03703703703703702,0,0,0.03703703703703702,25.85185185185184,0)" xlink:href="#aJ"/><use transform="matrix(0.03703703703703702,0,0,0.03703703703703702,36.92592592592591,0)" xlink:href="#aH"/><use transform="matrix(0.03703703703703702,0,0,0.03703703703703702,44.333333333333314,0)" xlink:href="#az"/><use transform="matrix(0.03703703703703702,0,0,0.03703703703703702,50.99999999999998,0)" xlink:href="#aA"/><use transform="matrix(0.03703703703703702,0,0,0.03703703703703702,53.9259259259259,0)" xlink:href="#ba"/><use transform="matrix(0.03703703703703702,0,0,0.03703703703703702,61.33333333333331,0)" xlink:href="#aP"/></g><g id="aa"><use transform="matrix(0.03703703703703702,0,0,0.03703703703703702,0,0)" xlink:href="#ay"/><use transform="matrix(0.03703703703703702,0,0,0.03703703703703702,7.407407407407404,0)" xlink:href="#bh"/><use transform="matrix(0.03703703703703702,0,0,0.03703703703703702,14.074074074074067,0)" xlink:href="#aK"/><use transform="matrix(0.03703703703703702,0,0,0.03703703703703702,17.777777777777768,0)" xlink:href="#aC"/><use transform="matrix(0.03703703703703702,0,0,0.03703703703703702,22.185185185185173,0)" xlink:href="#aH"/><use transform="matrix(0.03703703703703702,0,0,0.03703703703703702,29.592592592592574,0)" xlink:href="#aA"/><use transform="matrix(0.03703703703703702,0,0,0.03703703703703702,32.518518518518505,0)" xlink:href="#aW"/><use transform="matrix(0.03703703703703702,0,0,0.03703703703703702,39.92592592592591,0)" xlink:href="#aH"/></g><g id="ab"><use transform="matrix(0.03703703703703702,0,0,0.03703703703703702,0,0)" xlink:href="#aJ"/><use transform="matrix(0.03703703703703702,0,0,0.03703703703703702,11.074074074074069,0)" xlink:href="#ay"/><use transform="matrix(0.03703703703703702,0,0,0.03703703703703702,18.481481481481474,0)" xlink:href="#aJ"/><use transform="matrix(0.03703703703703702,0,0,0.03703703703703702,29.555555555555543,0)" xlink:href="#aE"/><use transform="matrix(0.03703703703703702,0,0,0.03703703703703702,36.96296296296295,0)" xlink:href="#aC"/><use transform="matrix(0.03703703703703702,0,0,0.03703703703703702,41.37037037037035,0)" xlink:href="#aA"/><use transform="matrix(0.03703703703703702,0,0,0.03703703703703702,44.296296296296276,0)" xlink:href="#aH"/></g><g id="ac"><use transform="matrix(0.03703703703703702,0,0,0.03703703703703702,0,0)" xlink:href="#aS"/><use transform="matrix(0.03703703703703702,0,0,0.03703703703703702,8.111111111111107,0)" xlink:href="#aA"/><use transform="matrix(0.03703703703703702,0,0,0.03703703703703702,11.037037037037031,0)" xlink:href="#aP"/><use transform="matrix(0.03703703703703702,0,0,0.03703703703703702,18.444444444444436,0)" xlink:href="#aH"/><use transform="matrix(0.03703703703703702,0,0,0.03703703703703702,25.85185185185184,0)" xlink:href="#aD"/><use transform="matrix(0.03703703703703702,0,0,0.03703703703703702,28.777777777777764,0)" xlink:href="#aA"/><use transform="matrix(0.03703703703703702,0,0,0.03703703703703702,31.70370370370369,0)" xlink:href="#bc"/><use transform="matrix(0.03703703703703702,0,0,0.03703703703703702,38.37037037037035,0)" xlink:href="#aH"/><use transform="matrix(0.03703703703703702,0,0,0.03703703703703702,45.77777777777776,0)" xlink:href="#aC"/></g><path fill="#333" d="M24-231v-30h32v30H24zM-9 49c24 4 33-6 33-30v-209h32V24c2 40-23 58-65 49V49" id="bi"/><g id="ad"><use transform="matrix(0.03703703703703702,0,0,0.03703703703703702,0,0)" xlink:href="#ay"/><use transform="matrix(0.03703703703703702,0,0,0.03703703703703702,7.407407407407404,0)" xlink:href="#bi"/><use transform="matrix(0.03703703703703702,0,0,0.03703703703703702,10.333333333333329,0)" xlink:href="#ay"/><use transform="matrix(0.03703703703703702,0,0,0.03703703703703702,17.740740740740733,0)" xlink:href="#az"/><use transform="matrix(0.03703703703703702,0,0,0.03703703703703702,24.407407407407398,0)" xlink:href="#aO"/><use transform="matrix(0.03703703703703702,0,0,0.03703703703703702,31.814814814814802,0)" xlink:href="#az"/><use transform="matrix(0.03703703703703702,0,0,0.03703703703703702,38.48148148148147,0)" xlink:href="#aA"/><use transform="matrix(0.03703703703703702,0,0,0.03703703703703702,41.40740740740739,0)" xlink:href="#ba"/><use transform="matrix(0.03703703703703702,0,0,0.03703703703703702,48.814814814814795,0)" xlink:href="#aP"/></g><g id="ae"><use transform="matrix(0.03703703703703702,0,0,0.03703703703703702,0,0)" xlink:href="#aW"/><use transform="matrix(0.03703703703703702,0,0,0.03703703703703702,7.407407407407404,0)" xlink:href="#ay"/><use transform="matrix(0.03703703703703702,0,0,0.03703703703703702,14.814814814814808,0)" xlink:href="#aD"/></g><g id="af"><use transform="matrix(0.03703703703703702,0,0,0.03703703703703702,0,0)" xlink:href="#aJ"/><use transform="matrix(0.03703703703703702,0,0,0.03703703703703702,11.074074074074069,0)" xlink:href="#bf"/><use transform="matrix(0.03703703703703702,0,0,0.03703703703703702,18.481481481481474,0)" xlink:href="#aK"/><use transform="matrix(0.03703703703703702,0,0,0.03703703703703702,22.185185185185176,0)" xlink:href="#aE"/><use transform="matrix(0.03703703703703702,0,0,0.03703703703703702,29.59259259259258,0)" xlink:href="#aW"/><use transform="matrix(0.03703703703703702,0,0,0.03703703703703702,36.999999999999986,0)" xlink:href="#aE"/></g><path fill="#333" d="M143 4C61 4 22-44 18-125c-5-107 100-154 193-111 17 8 29 25 37 43l-32 9c-13-25-37-40-76-40-61 0-88 39-88 99 0 61 29 100 91 101 35 0 62-11 79-27v-45h-74v-28h105v86C228-13 192 4 143 4" id="bj"/><g id="ag"><use transform="matrix(0.03703703703703702,0,0,0.03703703703703702,0,0)" xlink:href="#bj"/><use transform="matrix(0.03703703703703702,0,0,0.03703703703703702,10.370370370370367,0)" xlink:href="#aO"/><use transform="matrix(0.03703703703703702,0,0,0.03703703703703702,17.77777777777777,0)" xlink:href="#aH"/><use transform="matrix(0.03703703703703702,0,0,0.03703703703703702,25.185185185185173,0)" xlink:href="#aC"/><use transform="matrix(0.03703703703703702,0,0,0.03703703703703702,29.59259259259258,0)" xlink:href="#aW"/><use transform="matrix(0.03703703703703702,0,0,0.03703703703703702,36.999999999999986,0)" xlink:href="#aH"/><use transform="matrix(0.03703703703703702,0,0,0.03703703703703702,44.40740740740739,0)" xlink:href="#aC"/></g><g id="ah"><use transform="matrix(0.03703703703703702,0,0,0.03703703703703702,0,0)" xlink:href="#az"/><use transform="matrix(0.03703703703703702,0,0,0.03703703703703702,6.666666666666663,0)" xlink:href="#aE"/><use transform="matrix(0.03703703703703702,0,0,0.03703703703703702,14.074074074074067,0)" xlink:href="#aP"/><use transform="matrix(0.03703703703703702,0,0,0.03703703703703702,21.481481481481474,0)" xlink:href="#aF"/><use transform="matrix(0.03703703703703702,0,0,0.03703703703703702,28.148148148148135,0)" xlink:href="#aO"/><use transform="matrix(0.03703703703703702,0,0,0.03703703703703702,35.555555555555536,0)" xlink:href="#aD"/><use transform="matrix(0.03703703703703702,0,0,0.03703703703703702,38.48148148148146,0)" xlink:href="#aK"/><use transform="matrix(0.03703703703703702,0,0,0.03703703703703702,42.18518518518516,0)" xlink:href="#aH"/></g><path fill="#333" d="M68-38c1 34 0 65-14 84H32c9-13 17-26 17-46H33v-38h35" id="bk"/><g id="ai"><use transform="matrix(0.03703703703703702,0,0,0.03703703703703702,0,0)" xlink:href="#az"/><use transform="matrix(0.03703703703703702,0,0,0.03703703703703702,6.666666666666663,0)" xlink:href="#aH"/><use transform="matrix(0.03703703703703702,0,0,0.03703703703703702,14.074074074074067,0)" xlink:href="#az"/><use transform="matrix(0.03703703703703702,0,0,0.03703703703703702,20.740740740740733,0)" xlink:href="#aX"/><use transform="matrix(0.03703703703703702,0,0,0.03703703703703702,28.148148148148135,0)" xlink:href="#bf"/><use transform="matrix(0.03703703703703702,0,0,0.03703703703703702,35.555555555555536,0)" xlink:href="#bk"/></g><g id="aj"><use transform="matrix(0.03703703703703702,0,0,0.03703703703703702,0,0)" xlink:href="#aF"/><use transform="matrix(0.03703703703703702,0,0,0.03703703703703702,6.666666666666663,0)" xlink:href="#aA"/><use transform="matrix(0.03703703703703702,0,0,0.03703703703703702,9.592592592592588,0)" xlink:href="#aZ"/><use transform="matrix(0.03703703703703702,0,0,0.03703703703703702,16.999999999999993,0)" xlink:href="#aO"/><use transform="matrix(0.03703703703703702,0,0,0.03703703703703702,24.407407407407398,0)" xlink:href="#aA"/><use transform="matrix(0.03703703703703702,0,0,0.03703703703703702,27.33333333333332,0)" xlink:href="#ay"/><use transform="matrix(0.03703703703703702,0,0,0.03703703703703702,34.740740740740726,0)" xlink:href="#aP"/><use transform="matrix(0.03703703703703702,0,0,0.03703703703703702,42.14814814814813,0)" xlink:href="#aW"/><use transform="matrix(0.03703703703703702,0,0,0.03703703703703702,49.555555555555536,0)" xlink:href="#aE"/></g><g id="ak"><use transform="matrix(0.03703703703703702,0,0,0.03703703703703702,0,0)" xlink:href="#aD"/><use transform="matrix(0.03703703703703702,0,0,0.03703703703703702,2.9259259259259247,0)" xlink:href="#aH"/><use transform="matrix(0.03703703703703702,0,0,0.03703703703703702,10.333333333333329,0)" xlink:href="#aF"/></g><g id="al"><use transform="matrix(0.03703703703703702,0,0,0.03703703703703702,0,0)" xlink:href="#aG"/><use transform="matrix(0.03703703703703702,0,0,0.03703703703703702,7.407407407407404,0)" xlink:href="#aE"/><use transform="matrix(0.03703703703703702,0,0,0.03703703703703702,14.814814814814808,0)" xlink:href="#aD"/><use transform="matrix(0.03703703703703702,0,0,0.03703703703703702,17.740740740740733,0)" xlink:href="#aA"/><use transform="matrix(0.03703703703703702,0,0,0.03703703703703702,20.666666666666657,0)" xlink:href="#aK"/><use transform="matrix(0.03703703703703702,0,0,0.03703703703703702,24.37037037037036,0)" xlink:href="#aA"/><use transform="matrix(0.03703703703703702,0,0,0.03703703703703702,27.296296296296283,0)" xlink:href="#az"/><use transform="matrix(0.03703703703703702,0,0,0.03703703703703702,33.96296296296295,0)" xlink:href="#aH"/><use transform="matrix(0.03703703703703702,0,0,0.03703703703703702,41.37037037037035,0)" xlink:href="#aF"/></g><g id="am"><use transform="matrix(0.03703703703703702,0,0,0.03703703703703702,0,0)" xlink:href="#aC"/><use transform="matrix(0.03703703703703702,0,0,0.03703703703703702,4.407407407407406,0)" xlink:href="#ay"/><use transform="matrix(0.03703703703703702,0,0,0.03703703703703702,11.81481481481481,0)" xlink:href="#aV"/><use transform="matrix(0.03703703703703702,0,0,0.03703703703703702,15.518518518518512,0)" xlink:href="#aC"/><use transform="matrix(0.03703703703703702,0,0,0.03703703703703702,19.925925925925917,0)" xlink:href="#ay"/><use transform="matrix(0.03703703703703702,0,0,0.03703703703703702,27.33333333333332,0)" xlink:href="#aF"/><use transform="matrix(0.03703703703703702,0,0,0.03703703703703702,33.999999999999986,0)" xlink:href="#az"/><use transform="matrix(0.03703703703703702,0,0,0.03703703703703702,40.66666666666665,0)" xlink:href="#aH"/><use transform="matrix(0.03703703703703702,0,0,0.03703703703703702,48.074074074074055,0)" xlink:href="#aJ"/><use transform="matrix(0.03703703703703702,0,0,0.03703703703703702,59.148148148148124,0)" xlink:href="#aA"/><use transform="matrix(0.03703703703703702,0,0,0.03703703703703702,62.07407407407405,0)" xlink:href="#ay"/><use transform="matrix(0.03703703703703702,0,0,0.03703703703703702,69.48148148148145,0)" xlink:href="#aP"/><use transform="matrix(0.03703703703703702,0,0,0.03703703703703702,76.88888888888886,0)" xlink:href="#aK"/><use transform="matrix(0.03703703703703702,0,0,0.03703703703703702,80.59259259259255,0)" xlink:href="#aE"/></g><g id="an"><use transform="matrix(0.03703703703703702,0,0,0.03703703703703702,0,0)" xlink:href="#aS"/><use transform="matrix(0.03703703703703702,0,0,0.03703703703703702,8.111111111111107,0)" xlink:href="#aA"/><use transform="matrix(0.03703703703703702,0,0,0.03703703703703702,11.037037037037031,0)" xlink:href="#aC"/><use transform="matrix(0.03703703703703702,0,0,0.03703703703703702,15.444444444444436,0)" xlink:href="#ay"/><use transform="matrix(0.03703703703703702,0,0,0.03703703703703702,22.85185185185184,0)" xlink:href="#aF"/><use transform="matrix(0.03703703703703702,0,0,0.03703703703703702,29.518518518518505,0)" xlink:href="#aK"/><use transform="matrix(0.03703703703703702,0,0,0.03703703703703702,33.22222222222221,0)" xlink:href="#aE"/><use transform="matrix(0.03703703703703702,0,0,0.03703703703703702,40.62962962962961,0)" xlink:href="#aC"/><use transform="matrix(0.03703703703703702,0,0,0.03703703703703702,45.03703703703702,0)" xlink:href="#ay"/></g><g id="ao"><use transform="matrix(0.03703703703703702,0,0,0.03703703703703702,0,0)" xlink:href="#ay"/><use transform="matrix(0.03703703703703702,0,0,0.03703703703703702,7.407407407407404,0)" xlink:href="#aD"/></g><g id="ap"><use transform="matrix(0.03703703703703702,0,0,0.03703703703703702,0,0)" xlink:href="#aS"/><use transform="matrix(0.03703703703703702,0,0,0.03703703703703702,8.111111111111107,0)" xlink:href="#aA"/><use transform="matrix(0.03703703703703702,0,0,0.03703703703703702,11.037037037037031,0)" xlink:href="#aC"/><use transform="matrix(0.03703703703703702,0,0,0.03703703703703702,15.444444444444436,0)" xlink:href="#ay"/><use transform="matrix(0.03703703703703702,0,0,0.03703703703703702,22.85185185185184,0)" xlink:href="#aF"/><use transform="matrix(0.03703703703703702,0,0,0.03703703703703702,29.518518518518505,0)" xlink:href="#aK"/><use transform="matrix(0.03703703703703702,0,0,0.03703703703703702,33.22222222222221,0)" xlink:href="#aE"/><use transform="matrix(0.03703703703703702,0,0,0.03703703703703702,40.62962962962961,0)" xlink:href="#aC"/><use transform="matrix(0.03703703703703702,0,0,0.03703703703703702,45.03703703703702,0)" xlink:href="#ay"/></g><path fill="#333" d="M240-174c0 40-23 61-54 70L253 0h-59l-57-94H76V0H24v-248c93 4 217-23 216 74zM76-134c48-2 112 12 112-38 0-48-66-32-112-35v73" id="bl"/><path fill="#333" d="M185-48c-13 30-37 53-82 52C43 2 14-33 14-96s30-98 90-98c62 0 83 45 84 108H66c0 31 8 55 39 56 18 0 30-7 34-22zm-45-69c5-46-57-63-70-21-2 6-4 13-4 21h74" id="bm"/><path fill="#333" d="M133-34C117-15 103 5 69 4 32 3 11-16 11-54c-1-60 55-63 116-61 1-26-3-47-28-47-18 1-26 9-28 27l-52-2c7-38 36-58 82-57s74 22 75 68l1 82c-1 14 12 18 25 15v27c-30 8-71 5-69-32zm-48 3c29 0 43-24 42-57-32 0-66-3-65 30 0 17 8 27 23 27" id="bn"/><path fill="#333" d="M25 0v-261h50V0H25" id="bo"/><g id="aq"><use transform="matrix(0.03703703703703704,0,0,0.03703703703703704,0,0)" xlink:href="#bl"/><use transform="matrix(0.03703703703703704,0,0,0.03703703703703704,9.592592592592593,0)" xlink:href="#bm"/><use transform="matrix(0.03703703703703704,0,0,0.03703703703703704,17,0)" xlink:href="#bn"/><use transform="matrix(0.03703703703703704,0,0,0.03703703703703704,24.407407407407405,0)" xlink:href="#bo"/></g><path fill="#333" d="M136-208V0H84v-208H4v-40h212v40h-80" id="bp"/><path fill="#333" d="M25-224v-37h50v37H25zM25 0v-190h50V0H25" id="bq"/><path fill="#333" d="M220-157c-53 9-28 100-34 157h-49v-107c1-27-5-49-29-50C55-147 81-57 75 0H25l-1-190h47c2 12-1 28 3 38 10-53 101-56 108 0 13-22 24-43 59-42 82 1 51 116 57 194h-49v-107c-1-25-5-48-29-50" id="br"/><g id="ar"><use transform="matrix(0.03703703703703704,0,0,0.03703703703703704,0,0)" xlink:href="#bp"/><use transform="matrix(0.03703703703703704,0,0,0.03703703703703704,7.851851851851853,0)" xlink:href="#bq"/><use transform="matrix(0.03703703703703704,0,0,0.03703703703703704,11.555555555555557,0)" xlink:href="#br"/><use transform="matrix(0.03703703703703704,0,0,0.03703703703703704,23.407407407407412,0)" xlink:href="#bm"/></g><path fill="#333" d="M24-248c120-7 223 5 221 122C244-46 201 0 124 0H24v-248zM76-40c74 7 117-18 117-86 0-67-45-88-117-82v168" id="bs"/><path fill="#333" d="M115-3C79 11 28 4 28-45v-112H4v-33h27l15-45h31v45h36v33H77v99c-1 23 16 31 38 25v30" id="bt"/><path fill="#333" d="M135-194c52 0 70 43 70 98 0 56-19 99-73 100-30 1-46-15-58-35L72 0H24l1-261h50v104c11-23 29-37 60-37zM114-30c31 0 40-27 40-66 0-37-7-63-39-63s-41 28-41 65c0 36 8 64 40 64" id="bu"/><path fill="#333" d="M137-138c1-29-70-34-71-4 15 46 118 7 119 86 1 83-164 76-172 9l43-7c4 19 20 25 44 25 33 8 57-30 24-41C81-84 22-81 20-136c-2-80 154-74 161-7" id="bv"/><g id="as"><use transform="matrix(0.03703703703703704,0,0,0.03703703703703704,0,0)" xlink:href="#bs"/><use transform="matrix(0.03703703703703704,0,0,0.03703703703703704,9.592592592592593,0)" xlink:href="#bn"/><use transform="matrix(0.03703703703703704,0,0,0.03703703703703704,17,0)" xlink:href="#bt"/><use transform="matrix(0.03703703703703704,0,0,0.03703703703703704,21.407407407407412,0)" xlink:href="#bn"/><use transform="matrix(0.03703703703703704,0,0,0.03703703703703704,28.81481481481482,0)" xlink:href="#bu"/><use transform="matrix(0.03703703703703704,0,0,0.03703703703703704,36.92592592592593,0)" xlink:href="#bn"/><use transform="matrix(0.03703703703703704,0,0,0.03703703703703704,44.333333333333336,0)" xlink:href="#bv"/><use transform="matrix(0.03703703703703704,0,0,0.03703703703703704,51.74074074074075,0)" xlink:href="#bm"/></g><path fill="#333" d="M76-208v77h127v40H76V0H24v-248h183v40H76" id="bw"/><path fill="#333" d="M135-150c-39-12-60 13-60 57V0H25l-1-190h47c2 13-1 29 3 40 6-28 27-53 61-41v41" id="bx"/><path fill="#333" d="M110-194c64 0 96 36 96 99 0 64-35 99-97 99-61 0-95-36-95-99 0-62 34-99 96-99zm-1 164c35 0 45-28 45-65 0-40-10-65-43-65-34 0-45 26-45 65 0 36 10 65 43 65" id="by"/><g id="at"><use transform="matrix(0.03703703703703704,0,0,0.03703703703703704,0,0)" xlink:href="#bw"/><use transform="matrix(0.03703703703703704,0,0,0.03703703703703704,8.111111111111112,0)" xlink:href="#bq"/><use transform="matrix(0.03703703703703704,0,0,0.03703703703703704,11.814814814814817,0)" xlink:href="#bx"/><use transform="matrix(0.03703703703703704,0,0,0.03703703703703704,17.000000000000004,0)" xlink:href="#bm"/><use transform="matrix(0.03703703703703704,0,0,0.03703703703703704,24.407407407407412,0)" xlink:href="#bv"/><use transform="matrix(0.03703703703703704,0,0,0.03703703703703704,31.81481481481482,0)" xlink:href="#bt"/><use transform="matrix(0.03703703703703704,0,0,0.03703703703703704,36.22222222222223,0)" xlink:href="#by"/><use transform="matrix(0.03703703703703704,0,0,0.03703703703703704,44.333333333333336,0)" xlink:href="#bx"/><use transform="matrix(0.03703703703703704,0,0,0.03703703703703704,49.518518518518526,0)" xlink:href="#bm"/></g><g id="au"><use transform="matrix(0.03703703703703704,0,0,0.03703703703703704,0,0)" xlink:href="#bv"/><use transform="matrix(0.03703703703703704,0,0,0.03703703703703704,7.407407407407408,0)" xlink:href="#bq"/></g><path fill="#333" d="M135-194c87-1 58 113 63 194h-50c-7-57 23-157-34-157-59 0-34 97-39 157H25l-1-190h47c2 12-1 28 3 38 12-26 28-41 61-42" id="bz"/><g id="av"><use transform="matrix(0.03703703703703704,0,0,0.03703703703703704,0,0)" xlink:href="#bz"/><use transform="matrix(0.03703703703703704,0,0,0.03703703703703704,8.111111111111112,0)" xlink:href="#by"/></g><path fill="#333" d="M169-182c-1-43-94-46-97-3 18 66 151 10 154 114 3 95-165 93-204 36-6-8-10-19-12-30l50-8c3 46 112 56 116 5-17-69-150-10-154-114-4-87 153-88 188-35 5 8 8 18 10 28" id="bA"/><path fill="#333" d="M25 0v-190h50V0H25zm-5-208v-5l45-51h45v8l-60 48H20" id="bB"/><g id="aw"><use transform="matrix(0.03703703703703704,0,0,0.03703703703703704,0,0)" xlink:href="#bA"/><use transform="matrix(0.03703703703703704,0,0,0.03703703703703704,8.88888888888889,0)" xlink:href="#bB"/></g></defs></g></svg>