<svg xmlns="http://www.w3.org/2000/svg" xmlns:xlink="http://www.w3.org/1999/xlink" xmlns:lucid="lucid" width="1400" height="880"><g transform="translate(-340 -40)" lucid:page-tab-id="0_0"><path d="M0 0h1870.4v1323.2H0z" fill="#fff"/><path d="M1328 86h384c4.42 0 8 3.58 8 8v798c0 4.42-3.58 8-8 8H668c-4.42 0-8-3.58-8-8V68c0-4.42 3.58-8 8-8h620c4.42 0 10.78 2.26 14.2 5.04zm-668 0h668" stroke="#333" fill="#fff"/><use xlink:href="#a" transform="matrix(1,0,0,1,668.0000000000001,60) translate(231.08641975308547 16.5555555555556)"/><use xlink:href="#b" transform="matrix(1,0,0,1,668.0000000000001,60) translate(296.1234567901233 16.5555555555556)"/><use xlink:href="#c" transform="matrix(1,0,0,1,668.0000000000001,60) translate(306.9382716049383 16.5555555555556)"/><path d="M415.94 420.84c-16.92 3.96-26.82 22.56-22.1 41.64 4.72 18.96 22.1 30.48 38.9 26.4 16.92-4.08 26.82-22.68 22.1-41.64-4.72-18.72-22.33-30.48-38.9-26.4zM452.08 493.92c-3.1-.24-6.8 5.76-11.5 8.16-4.73 2.04-9.8 6.36-23.38 0-13.58-6.36-15.54-11.88-27.04-11.88S360.36 510.48 360 540h115.1c-.35 0-1.4-20.28-7.83-31.2-7.7-14.52-12.1-14.88-15.2-14.88z" stroke="#000" stroke-opacity="0" fill="#00188f"/><use xlink:href="#d" transform="matrix(1,0,0,1,330,549) translate(34.14999999999999 14.4)"/><path d="M1193 446h59c4.42 0 8 3.58 8 8v78c0 4.42-3.58 8-8 8h-164c-4.42 0-8-3.58-8-8V428c0-4.42 3.58-8 8-8h92c4.42 0 8.68 3.52 9.5 7.86zm-113 0h113" stroke="#333" fill="#fff"/><use xlink:href="#e" transform="matrix(1,0,0,1,1088,420) translate(11.950617283950244 16.5555555555556)"/><use xlink:href="#f" transform="matrix(1,0,0,1,1092,454) translate(43.950617283950194 21.222222222222)"/><use xlink:href="#g" transform="matrix(1,0,0,1,1092,454) translate(17.851851851851087 42.5555555555556)"/><use xlink:href="#h" transform="matrix(1,0,0,1,1092,454) translate(20.790123456789402 63.8888888888892)"/><use xlink:href="#c" transform="matrix(1,0,0,1,1092,454) translate(61.23456790123436 63.8888888888892)"/><path d="M833 446h59c4.42 0 8 3.58 8 8v78c0 4.42-3.58 8-8 8H728c-4.42 0-8-3.58-8-8V428c0-4.42 3.58-8 8-8h92c4.42 0 8.68 3.52 9.5 7.86zm-113 0h113" stroke="#333" fill="#fff"/><use xlink:href="#i" transform="matrix(1,0,0,1,728,420) translate(7.456790123456358 16.5555555555556)"/><use xlink:href="#j" transform="matrix(1,0,0,1,732,454) translate(5.012345679011432 21.222222222222)"/><use xlink:href="#k" transform="matrix(1,0,0,1,732,454) translate(78.04938271604938 21.222222222222)"/><use xlink:href="#l" transform="matrix(1,0,0,1,732,454) translate(111.62962962963005 21.222222222222)"/><use xlink:href="#m" transform="matrix(1,0,0,1,732,454) translate(6.148148148147257 42.5555555555556)"/><use xlink:href="#n" transform="matrix(1,0,0,1,732,454) translate(62.19753086419734 42.5555555555556)"/><use xlink:href="#o" transform="matrix(1,0,0,1,732,454) translate(77.01234567901234 42.5555555555556)"/><use xlink:href="#p" transform="matrix(1,0,0,1,732,454) translate(95.72839506172862 42.5555555555556)"/><use xlink:href="#q" transform="matrix(1,0,0,1,732,454) translate(19.358024691357286 63.8888888888892)"/><path d="M533.23 482.88h-86.65v-2h86.65zm167.77 0h-69.15v-2H701z" fill="#5e5e5e"/><path d="M446.6 482.88h-2.1l.33-.27 1.76-1.72zM716.26 481.88L702 486.52v-9.27z" fill="#5e5e5e"/><path d="M719.5 481.88l-18.5 6v-12zm-16.5 3.26l10.03-3.26-10.03-3.26z" fill="#5e5e5e"/><use xlink:href="#r" transform="matrix(1,0,0,1,533.2300723940043,471.2156427413774) translate(0.005000000000002558 14.222222222222223)"/><path d="M959.06 481H901.5v-2h57.56zm101.94 0h-69.4v-2h69.4z" fill="#5e5e5e"/><path d="M901.53 481h-1.03v-2h1.03zM1076.26 480l-14.26 4.64v-9.28z" fill="#5e5e5e"/><path d="M1079.5 480l-18.5 6v-12zm-16.5 3.26l10.03-3.26-10.03-3.26z" fill="#5e5e5e"/><use xlink:href="#s" transform="matrix(1,0,0,1,959.0617283950617,469.3333333333333) translate(0.004999999999999005 14.222222222222223)"/><path d="M1553 146h59c4.42 0 8 3.58 8 8v78c0 4.42-3.58 8-8 8h-164c-4.42 0-8-3.58-8-8V128c0-4.42 3.58-8 8-8h92c4.42 0 8.68 3.52 9.5 7.86zm-113 0h113" stroke="#333" fill="#fff"/><use xlink:href="#t" transform="matrix(1,0,0,1,1448,120) translate(11.950617283950244 16.5555555555556)"/><use xlink:href="#u" transform="matrix(1,0,0,1,1452,154) translate(45.950617283950216 42.5555555555556)"/><path d="M1553 346h59c4.42 0 8 3.58 8 8v78c0 4.42-3.58 8-8 8h-164c-4.42 0-8-3.58-8-8V328c0-4.42 3.58-8 8-8h92c4.42 0 8.68 3.52 9.5 7.86zm-113 0h113" stroke="#333" fill="#fff"/><use xlink:href="#t" transform="matrix(1,0,0,1,1448,320) translate(11.950617283950244 16.5555555555556)"/><use xlink:href="#v" transform="matrix(1,0,0,1,1452,354) translate(31.604938271604354 42.5555555555556)"/><path d="M1553 546h59c4.42 0 8 3.58 8 8v78c0 4.42-3.58 8-8 8h-164c-4.42 0-8-3.58-8-8V528c0-4.42 3.58-8 8-8h92c4.42 0 8.68 3.52 9.5 7.86zm-113 0h113" stroke="#333" fill="#fff"/><use xlink:href="#t" transform="matrix(1,0,0,1,1448,520) translate(11.950617283950244 16.5555555555556)"/><use xlink:href="#w" transform="matrix(1,0,0,1,1452,554) translate(19.358024691357286 42.5555555555556)"/><path d="M1553 746h59c4.42 0 8 3.58 8 8v78c0 4.42-3.58 8-8 8h-164c-4.42 0-8-3.58-8-8V728c0-4.42 3.58-8 8-8h92c4.42 0 8.68 3.52 9.5 7.86zm-113 0h113" stroke="#333" fill="#fff"/><use xlink:href="#t" transform="matrix(1,0,0,1,1448,720) translate(11.950617283950244 16.5555555555556)"/><use xlink:href="#x" transform="matrix(1,0,0,1,1452,754) translate(61.23456790123436 42.5555555555556)"/><path d="M1311 442.43l-.92 3.4-2.53 2.54-3.42.93h-44.9v-2h44.64l2.64-.72 1.8-1.77.7-2.64V256h2zM1421 181h-104.87l-2.64.7-1.8 1.8-.7 2.63v48.54h-2v-48.8l.92-3.42 2.53-2.53 3.42-.92H1421z" fill="#5e5e5e"/><path d="M1259.25 449.3h-.35l-.88-1.32-1.02-.68h2.25zM1436.26 180l-14.26 4.64v-9.28z" fill="#5e5e5e"/><path d="M1439.5 180l-18.5 6v-12zm-16.5 3.26l10.03-3.26-10.03-3.26z" fill="#5e5e5e"/><use xlink:href="#s" transform="matrix(1,0,0,1,1293.7283950617284,234.66666666666669) translate(0.004999999999999005 14.222222222222223)"/><path d="M1351 474.13l-.92 3.42-2.53 2.53-3.42.92h-82.63v-2h82.37l2.64-.7 1.8-1.8.7-2.63V420h2zm70-93.13h-64.87l-2.64.7-1.8 1.8-.7 2.63v12.54h-2v-12.8l.92-3.42 2.53-2.53 3.42-.92H1421z" fill="#5e5e5e"/><path d="M1261.53 481h-1.03v-2h1.03zM1436.26 380l-14.26 4.64v-9.28z" fill="#5e5e5e"/><path d="M1439.5 380l-18.5 6v-12zm-16.5 3.26l10.03-3.26-10.03-3.26z" fill="#5e5e5e"/><g><use xlink:href="#s" transform="matrix(1,0,0,1,1333.7283950617284,398.66666666666663) translate(0.004999999999999005 14.222222222222223)"/></g><path d="M1351 604.03l.7 2.65 1.8 1.77 2.63.72H1421v2h-65.13l-3.42-.93-2.53-2.53-.92-3.4v-33.47h2zm-3.45-93.94l2.53 2.52.92 3.4v33.48h-2v-33.2l-.7-2.64-1.8-1.78-2.63-.7h-82.37v-2h82.63z" fill="#5e5e5e"/><path d="M1261.53 511.17h-1.03v-2h1.03zM1436.26 610.17L1422 614.8v-9.27z" fill="#5e5e5e"/><path d="M1439.5 610.17l-18.5 6v-12.02zm-16.5 3.26l10.03-3.26-10.03-3.26z" fill="#5e5e5e"/><g><use xlink:href="#s" transform="matrix(1,0,0,1,1333.7283950617284,549.5) translate(0.004999999999999005 14.222222222222223)"/></g><path d="M1311 804.03l.7 2.65 1.8 1.77 2.63.72H1421v2h-105.13l-3.42-.93-2.53-2.53-.92-3.4v-80.78h2zm-3.45-266.1l2.53 2.54.92 3.4v158.3h-2V544.16l-.7-2.64-1.8-1.77-2.63-.7h-44.85v-2h45.1z" fill="#5e5e5e"/><path d="M1259.04 539.02h-2.5l1.48-1 .67-1h.34zM1436.26 810.17L1422 814.8v-9.27z" fill="#5e5e5e"/><path d="M1439.5 810.17l-18.5 6v-12.02zm-16.5 3.26l10.03-3.26-10.03-3.26z" fill="#5e5e5e"/><g><use xlink:href="#s" transform="matrix(1,0,0,1,1293.7283950617284,702.1837053634811) translate(0.004999999999999005 14.222222222222223)"/></g><defs><path fill="#333" d="M30 0v-248h33v221h125V0H30" id="y"/><path fill="#333" d="M24-231v-30h32v30H24zM24 0v-190h32V0H24" id="z"/><path fill="#333" d="M115-194c53 0 69 39 70 98 0 66-23 100-70 100C84 3 66-7 56-30L54 0H23l1-261h32v101c10-23 28-34 59-34zm-8 174c40 0 45-34 45-75 0-40-5-75-45-74-42 0-51 32-51 76 0 43 10 73 51 73" id="A"/><path fill="#333" d="M114-163C36-179 61-72 57 0H25l-1-190h30c1 12-1 29 2 39 6-27 23-49 58-41v29" id="B"/><path fill="#333" d="M100-194c63 0 86 42 84 106H49c0 40 14 67 53 68 26 1 43-12 49-29l28 8c-11 28-37 45-77 45C44 4 14-33 15-96c1-61 26-98 85-98zm52 81c6-60-76-77-97-28-3 7-6 17-6 28h103" id="C"/><path fill="#333" d="M34 0v-190h32V0H34zM24-211c8-23 27-35 38-54h36v5l-58 49H24" id="D"/><path fill="#333" d="M141-36C126-15 110 5 73 4 37 3 15-17 15-53c-1-64 63-63 125-63 3-35-9-54-41-54-24 1-41 7-42 31l-33-3c5-37 33-52 76-52 45 0 72 20 72 64v82c-1 20 7 32 28 27v20c-31 9-61-2-59-35zM48-53c0 20 12 33 32 33 41-3 63-29 60-74-43 2-92-5-92 41" id="E"/><g id="a"><use transform="matrix(0.04938271604938333,0,0,0.04938271604938333,0,0)" xlink:href="#y"/><use transform="matrix(0.04938271604938333,0,0,0.04938271604938333,9.876543209876667,0)" xlink:href="#z"/><use transform="matrix(0.04938271604938333,0,0,0.04938271604938333,13.777777777777949,0)" xlink:href="#A"/><use transform="matrix(0.04938271604938333,0,0,0.04938271604938333,23.654320987654614,0)" xlink:href="#B"/><use transform="matrix(0.04938271604938333,0,0,0.04938271604938333,29.530864197531233,0)" xlink:href="#C"/><use transform="matrix(0.04938271604938333,0,0,0.04938271604938333,39.407407407407895,0)" xlink:href="#B"/><use transform="matrix(0.04938271604938333,0,0,0.04938271604938333,45.28395061728451,0)" xlink:href="#D"/><use transform="matrix(0.04938271604938333,0,0,0.04938271604938333,50.22222222222285,0)" xlink:href="#E"/></g><path fill="#333" d="M16-82v-28h88v28H16" id="F"/><use transform="matrix(0.04938271604938333,0,0,0.04938271604938333,0,0)" xlink:href="#F" id="b"/><path fill="#333" d="M63-220v92h138v28H63V0H30v-248h175v28H63" id="G"/><path fill="#333" d="M160-131c35 5 61 23 61 61C221 17 115-2 30 0v-248c76 3 177-17 177 60 0 33-19 50-47 57zm-97-11c50-1 110 9 110-42 0-47-63-36-110-37v79zm0 115c55-2 124 14 124-45 0-56-70-42-124-44v89" id="H"/><path fill="#333" d="M212-179c-10-28-35-45-73-45-59 0-87 40-87 99 0 60 29 101 89 101 43 0 62-24 78-52l27 14C228-24 195 4 139 4 59 4 22-46 18-125c-6-104 99-153 187-111 19 9 31 26 39 46" id="I"/><path fill="#333" d="M96-169c-40 0-48 33-48 73s9 75 48 75c24 0 41-14 43-38l32 2c-6 37-31 61-74 61-59 0-76-41-82-99-10-93 101-131 147-64 4 7 5 14 7 22l-32 3c-4-21-16-35-41-35" id="J"/><path fill="#333" d="M106-169C34-169 62-67 57 0H25v-261h32l-1 103c12-21 28-36 61-36 89 0 53 116 60 194h-32v-121c2-32-8-49-39-48" id="K"/><g id="c"><use transform="matrix(0.04938271604938333,0,0,0.04938271604938333,0,0)" xlink:href="#G"/><use transform="matrix(0.04938271604938333,0,0,0.04938271604938333,10.81481481481495,0)" xlink:href="#H"/><use transform="matrix(0.04938271604938333,0,0,0.04938271604938333,22.66666666666695,0)" xlink:href="#I"/><use transform="matrix(0.04938271604938333,0,0,0.04938271604938333,35.45679012345723,0)" xlink:href="#E"/><use transform="matrix(0.04938271604938333,0,0,0.04938271604938333,45.3333333333339,0)" xlink:href="#J"/><use transform="matrix(0.04938271604938333,0,0,0.04938271604938333,54.2222222222229,0)" xlink:href="#K"/><use transform="matrix(0.04938271604938333,0,0,0.04938271604938333,64.09876543209957,0)" xlink:href="#C"/></g><path d="M30-248c118-7 216 8 213 122C240-48 200 0 122 0H30v-248zM63-27c89 8 146-16 146-99s-60-101-146-95v194" id="L"/><path d="M100-194c63 0 86 42 84 106H49c0 40 14 67 53 68 26 1 43-12 49-29l28 8c-11 28-37 45-77 45C44 4 14-33 15-96c1-61 26-98 85-98zm52 81c6-60-76-77-97-28-3 7-6 17-6 28h103" id="M"/><path d="M135-143c-3-34-86-38-87 0 15 53 115 12 119 90S17 21 10-45l28-5c4 36 97 45 98 0-10-56-113-15-118-90-4-57 82-63 122-42 12 7 21 19 24 35" id="N"/><path d="M141-36C126-15 110 5 73 4 37 3 15-17 15-53c-1-64 63-63 125-63 3-35-9-54-41-54-24 1-41 7-42 31l-33-3c5-37 33-52 76-52 45 0 72 20 72 64v82c-1 20 7 32 28 27v20c-31 9-61-2-59-35zM48-53c0 20 12 33 32 33 41-3 63-29 60-74-43 2-92-5-92 41" id="O"/><path d="M114-163C36-179 61-72 57 0H25l-1-190h30c1 12-1 29 2 39 6-27 23-49 58-41v29" id="P"/><path d="M100-194c62-1 85 37 85 99 1 63-27 99-86 99S16-35 15-95c0-66 28-99 85-99zM99-20c44 1 53-31 53-75 0-43-8-75-51-75s-53 32-53 75 10 74 51 75" id="Q"/><path d="M24 0v-261h32V0H24" id="R"/><path d="M85-194c31 0 48 13 60 33l-1-100h32l1 261h-30c-2-10 0-23-3-31C134-8 116 4 85 4 32 4 16-35 15-94c0-66 23-100 70-100zm9 24c-40 0-46 34-46 75 0 40 6 74 45 74 42 0 51-32 51-76 0-42-9-74-50-73" id="S"/><g id="d"><use transform="matrix(0.05,0,0,0.05,0,0)" xlink:href="#L"/><use transform="matrix(0.05,0,0,0.05,12.950000000000001,0)" xlink:href="#M"/><use transform="matrix(0.05,0,0,0.05,22.950000000000003,0)" xlink:href="#N"/><use transform="matrix(0.05,0,0,0.05,31.950000000000003,0)" xlink:href="#O"/><use transform="matrix(0.05,0,0,0.05,41.95,0)" xlink:href="#P"/><use transform="matrix(0.05,0,0,0.05,47.900000000000006,0)" xlink:href="#P"/><use transform="matrix(0.05,0,0,0.05,53.85,0)" xlink:href="#Q"/><use transform="matrix(0.05,0,0,0.05,63.85,0)" xlink:href="#R"/><use transform="matrix(0.05,0,0,0.05,67.80000000000001,0)" xlink:href="#R"/><use transform="matrix(0.05,0,0,0.05,71.75000000000001,0)" xlink:href="#O"/><use transform="matrix(0.05,0,0,0.05,81.75000000000001,0)" xlink:href="#S"/><use transform="matrix(0.05,0,0,0.05,91.75000000000001,0)" xlink:href="#Q"/><use transform="matrix(0.05,0,0,0.05,101.75000000000001,0)" xlink:href="#P"/></g><g id="e"><use transform="matrix(0.04938271604938333,0,0,0.04938271604938333,0,0)" xlink:href="#y"/><use transform="matrix(0.04938271604938333,0,0,0.04938271604938333,9.876543209876667,0)" xlink:href="#z"/><use transform="matrix(0.04938271604938333,0,0,0.04938271604938333,13.777777777777949,0)" xlink:href="#A"/><use transform="matrix(0.04938271604938333,0,0,0.04938271604938333,23.654320987654614,0)" xlink:href="#B"/><use transform="matrix(0.04938271604938333,0,0,0.04938271604938333,29.530864197531233,0)" xlink:href="#C"/><use transform="matrix(0.04938271604938333,0,0,0.04938271604938333,39.407407407407895,0)" xlink:href="#B"/><use transform="matrix(0.04938271604938333,0,0,0.04938271604938333,45.28395061728451,0)" xlink:href="#D"/><use transform="matrix(0.04938271604938333,0,0,0.04938271604938333,50.22222222222285,0)" xlink:href="#E"/></g><path fill="#333" d="M240 0l2-218c-23 76-54 145-80 218h-23L58-218 59 0H30v-248h44l77 211c21-75 51-140 76-211h43V0h-30" id="T"/><path fill="#333" d="M100-194c63 0 86 42 84 106H49c0 40 14 67 53 68 26 1 43-12 49-29l28 8c-11 28-37 45-77 45C44 4 14-33 15-96c1-61 26-98 85-98zm52 81c6-60-76-77-97-28-3 7-6 17-6 28h103zm-74-98c8-23 27-35 38-54h36v5l-58 49H78" id="U"/><path fill="#333" d="M59-47c-2 24 18 29 38 22v24C64 9 27 4 27-40v-127H5v-23h24l9-43h21v43h35v23H59v120" id="V"/><path fill="#333" d="M100-194c62-1 85 37 85 99 1 63-27 99-86 99S16-35 15-95c0-66 28-99 85-99zM99-20c44 1 53-31 53-75 0-43-8-75-51-75s-53 32-53 75 10 74 51 75" id="W"/><path fill="#333" d="M85-194c31 0 48 13 60 33l-1-100h32l1 261h-30c-2-10 0-23-3-31C134-8 116 4 85 4 32 4 16-35 15-94c0-66 23-100 70-100zm9 24c-40 0-46 34-46 75 0 40 6 74 45 74 42 0 51-32 51-76 0-42-9-74-50-73" id="X"/><path fill="#333" d="M135-143c-3-34-86-38-87 0 15 53 115 12 119 90S17 21 10-45l28-5c4 36 97 45 98 0-10-56-113-15-118-90-4-57 82-63 122-42 12 7 21 19 24 35" id="Y"/><g id="f"><use transform="matrix(0.04938271604938333,0,0,0.04938271604938333,0,0)" xlink:href="#T"/><use transform="matrix(0.04938271604938333,0,0,0.04938271604938333,14.765432098765617,0)" xlink:href="#U"/><use transform="matrix(0.04938271604938333,0,0,0.04938271604938333,24.641975308642284,0)" xlink:href="#V"/><use transform="matrix(0.04938271604938333,0,0,0.04938271604938333,29.580246913580616,0)" xlink:href="#W"/><use transform="matrix(0.04938271604938333,0,0,0.04938271604938333,39.45679012345728,0)" xlink:href="#X"/><use transform="matrix(0.04938271604938333,0,0,0.04938271604938333,49.33333333333395,0)" xlink:href="#W"/><use transform="matrix(0.04938271604938333,0,0,0.04938271604938333,59.20987654321061,0)" xlink:href="#Y"/></g><path fill="#333" d="M210-169c-67 3-38 105-44 169h-31v-121c0-29-5-50-35-48C34-165 62-65 56 0H25l-1-190h30c1 10-1 24 2 32 10-44 99-50 107 0 11-21 27-35 58-36 85-2 47 119 55 194h-31v-121c0-29-5-49-35-48" id="Z"/><path fill="#333" d="M115-194c55 1 70 41 70 98S169 2 115 4C84 4 66-9 55-30l1 105H24l-1-265h31l2 30c10-21 28-34 59-34zm-8 174c40 0 45-34 45-75s-6-73-45-74c-42 0-51 32-51 76 0 43 10 73 51 73" id="aa"/><path fill="#333" d="M24 0v-261h32V0H24" id="ab"/><path fill="#333" d="M117-194c89-4 53 116 60 194h-32v-121c0-31-8-49-39-48C34-167 62-67 57 0H25l-1-190h30c1 10-1 24 2 32 11-22 29-35 61-36" id="ac"/><g id="g"><use transform="matrix(0.04938271604938333,0,0,0.04938271604938333,0,0)" xlink:href="#z"/><use transform="matrix(0.04938271604938333,0,0,0.04938271604938333,3.901234567901283,0)" xlink:href="#Z"/><use transform="matrix(0.04938271604938333,0,0,0.04938271604938333,18.6666666666669,0)" xlink:href="#aa"/><use transform="matrix(0.04938271604938333,0,0,0.04938271604938333,28.543209876543564,0)" xlink:href="#ab"/><use transform="matrix(0.04938271604938333,0,0,0.04938271604938333,32.44444444444485,0)" xlink:href="#C"/><use transform="matrix(0.04938271604938333,0,0,0.04938271604938333,42.32098765432151,0)" xlink:href="#Z"/><use transform="matrix(0.04938271604938333,0,0,0.04938271604938333,57.08641975308713,0)" xlink:href="#C"/><use transform="matrix(0.04938271604938333,0,0,0.04938271604938333,66.9629629629638,0)" xlink:href="#ac"/><use transform="matrix(0.04938271604938333,0,0,0.04938271604938333,76.83950617284047,0)" xlink:href="#V"/><use transform="matrix(0.04938271604938333,0,0,0.04938271604938333,81.77777777777881,0)" xlink:href="#E"/><use transform="matrix(0.04938271604938333,0,0,0.04938271604938333,91.65432098765548,0)" xlink:href="#X"/><use transform="matrix(0.04938271604938333,0,0,0.04938271604938333,101.53086419753215,0)" xlink:href="#W"/><use transform="matrix(0.04938271604938333,0,0,0.04938271604938333,111.40740740740881,0)" xlink:href="#Y"/></g><g id="h"><use transform="matrix(0.04938271604938333,0,0,0.04938271604938333,0,0)" xlink:href="#aa"/><use transform="matrix(0.04938271604938333,0,0,0.04938271604938333,9.876543209876667,0)" xlink:href="#E"/><use transform="matrix(0.04938271604938333,0,0,0.04938271604938333,19.753086419753334,0)" xlink:href="#B"/><use transform="matrix(0.04938271604938333,0,0,0.04938271604938333,25.62962962962995,0)" xlink:href="#E"/></g><g id="i"><use transform="matrix(0.04938271604938333,0,0,0.04938271604938333,0,0)" xlink:href="#G"/><use transform="matrix(0.04938271604938333,0,0,0.04938271604938333,10.81481481481495,0)" xlink:href="#E"/><use transform="matrix(0.04938271604938333,0,0,0.04938271604938333,20.691358024691617,0)" xlink:href="#J"/><use transform="matrix(0.04938271604938333,0,0,0.04938271604938333,29.580246913580616,0)" xlink:href="#K"/><use transform="matrix(0.04938271604938333,0,0,0.04938271604938333,39.45679012345728,0)" xlink:href="#E"/><use transform="matrix(0.04938271604938333,0,0,0.04938271604938333,49.33333333333395,0)" xlink:href="#X"/><use transform="matrix(0.04938271604938333,0,0,0.04938271604938333,59.20987654321061,0)" xlink:href="#E"/></g><g id="j"><use transform="matrix(0.04938271604938333,0,0,0.04938271604938333,0,0)" xlink:href="#T"/><use transform="matrix(0.04938271604938333,0,0,0.04938271604938333,14.765432098765617,0)" xlink:href="#U"/><use transform="matrix(0.04938271604938333,0,0,0.04938271604938333,24.641975308642284,0)" xlink:href="#V"/><use transform="matrix(0.04938271604938333,0,0,0.04938271604938333,29.580246913580616,0)" xlink:href="#W"/><use transform="matrix(0.04938271604938333,0,0,0.04938271604938333,39.45679012345728,0)" xlink:href="#X"/><use transform="matrix(0.04938271604938333,0,0,0.04938271604938333,49.33333333333395,0)" xlink:href="#W"/><use transform="matrix(0.04938271604938333,0,0,0.04938271604938333,59.20987654321061,0)" xlink:href="#Y"/></g><g id="k"><use transform="matrix(0.04938271604938333,0,0,0.04938271604938333,0,0)" xlink:href="#J"/><use transform="matrix(0.04938271604938333,0,0,0.04938271604938333,8.888888888889,0)" xlink:href="#W"/><use transform="matrix(0.04938271604938333,0,0,0.04938271604938333,18.765432098765665,0)" xlink:href="#ac"/></g><path fill="#333" d="M101-234c-31-9-42 10-38 44h38v23H63V0H32v-167H5v-23h27c-7-52 17-82 69-68v24" id="ad"/><g id="l"><use transform="matrix(0.04938271604938333,0,0,0.04938271604938333,0,0)" xlink:href="#ad"/><use transform="matrix(0.04938271604938333,0,0,0.04938271604938333,4.9382716049383335,0)" xlink:href="#z"/><use transform="matrix(0.04938271604938333,0,0,0.04938271604938333,8.839506172839616,0)" xlink:href="#B"/><use transform="matrix(0.04938271604938333,0,0,0.04938271604938333,14.716049382716232,0)" xlink:href="#Z"/><use transform="matrix(0.04938271604938333,0,0,0.04938271604938333,29.481481481481847,0)" xlink:href="#E"/></g><g id="m"><use transform="matrix(0.04938271604938333,0,0,0.04938271604938333,0,0)" xlink:href="#Y"/><use transform="matrix(0.04938271604938333,0,0,0.04938271604938333,8.888888888889,0)" xlink:href="#z"/><use transform="matrix(0.04938271604938333,0,0,0.04938271604938333,12.790123456790283,0)" xlink:href="#Z"/><use transform="matrix(0.04938271604938333,0,0,0.04938271604938333,27.555555555555898,0)" xlink:href="#z"/><use transform="matrix(0.04938271604938333,0,0,0.04938271604938333,31.456790123457182,0)" xlink:href="#ab"/><use transform="matrix(0.04938271604938333,0,0,0.04938271604938333,35.358024691358466,0)" xlink:href="#E"/><use transform="matrix(0.04938271604938333,0,0,0.04938271604938333,45.23456790123513,0)" xlink:href="#B"/></g><use transform="matrix(0.04938271604938333,0,0,0.04938271604938333,0,0)" xlink:href="#E" id="n"/><g id="o"><use transform="matrix(0.04938271604938333,0,0,0.04938271604938333,0,0)" xlink:href="#ab"/><use transform="matrix(0.04938271604938333,0,0,0.04938271604938333,3.901234567901283,0)" xlink:href="#E"/></g><g id="p"><use transform="matrix(0.04938271604938333,0,0,0.04938271604938333,0,0)" xlink:href="#ab"/><use transform="matrix(0.04938271604938333,0,0,0.04938271604938333,3.901234567901283,0)" xlink:href="#z"/><use transform="matrix(0.04938271604938333,0,0,0.04938271604938333,7.802469135802566,0)" xlink:href="#A"/><use transform="matrix(0.04938271604938333,0,0,0.04938271604938333,17.679012345679233,0)" xlink:href="#B"/><use transform="matrix(0.04938271604938333,0,0,0.04938271604938333,23.55555555555585,0)" xlink:href="#C"/><use transform="matrix(0.04938271604938333,0,0,0.04938271604938333,33.432098765432514,0)" xlink:href="#B"/><use transform="matrix(0.04938271604938333,0,0,0.04938271604938333,39.30864197530913,0)" xlink:href="#D"/><use transform="matrix(0.04938271604938333,0,0,0.04938271604938333,44.246913580247465,0)" xlink:href="#E"/></g><g id="q"><use transform="matrix(0.04938271604938333,0,0,0.04938271604938333,0,0)" xlink:href="#ad"/><use transform="matrix(0.04938271604938333,0,0,0.04938271604938333,4.9382716049383335,0)" xlink:href="#z"/><use transform="matrix(0.04938271604938333,0,0,0.04938271604938333,8.839506172839616,0)" xlink:href="#B"/><use transform="matrix(0.04938271604938333,0,0,0.04938271604938333,14.716049382716232,0)" xlink:href="#C"/><use transform="matrix(0.04938271604938333,0,0,0.04938271604938333,24.5925925925929,0)" xlink:href="#A"/><use transform="matrix(0.04938271604938333,0,0,0.04938271604938333,34.469135802469566,0)" xlink:href="#E"/><use transform="matrix(0.04938271604938333,0,0,0.04938271604938333,44.34567901234623,0)" xlink:href="#Y"/><use transform="matrix(0.04938271604938333,0,0,0.04938271604938333,53.23456790123523,0)" xlink:href="#C"/><use transform="matrix(0.04938271604938333,0,0,0.04938271604938333,63.111111111111896,0)" xlink:href="#F"/><use transform="matrix(0.04938271604938333,0,0,0.04938271604938333,68.98765432098851,0)" xlink:href="#E"/><use transform="matrix(0.04938271604938333,0,0,0.04938271604938333,78.86419753086518,0)" xlink:href="#X"/><use transform="matrix(0.04938271604938333,0,0,0.04938271604938333,88.74074074074186,0)" xlink:href="#Z"/><use transform="matrix(0.04938271604938333,0,0,0.04938271604938333,103.50617283950746,0)" xlink:href="#z"/><use transform="matrix(0.04938271604938333,0,0,0.04938271604938333,107.40740740740874,0)" xlink:href="#ac"/></g><path fill="#333" d="M24 0v-248h52V0H24" id="ae"/><path fill="#333" d="M220-157c-53 9-28 100-34 157h-49v-107c1-27-5-49-29-50C55-147 81-57 75 0H25l-1-190h47c2 12-1 28 3 38 10-53 101-56 108 0 13-22 24-43 59-42 82 1 51 116 57 194h-49v-107c-1-25-5-48-29-50" id="af"/><path fill="#333" d="M135-194c53 0 70 44 70 98 0 56-19 98-73 100-31 1-45-17-59-34 3 33 2 69 2 105H25l-1-265h48c2 10 0 23 3 31 11-24 29-35 60-35zM114-30c33 0 39-31 40-66 0-38-9-64-40-64-56 0-55 130 0 130" id="ag"/><path fill="#333" d="M25 0v-261h50V0H25" id="ah"/><path fill="#333" d="M185-48c-13 30-37 53-82 52C43 2 14-33 14-96s30-98 90-98c62 0 83 45 84 108H66c0 31 8 55 39 56 18 0 30-7 34-22zm-45-69c5-46-57-63-70-21-2 6-4 13-4 21h74" id="ai"/><path fill="#333" d="M135-194c87-1 58 113 63 194h-50c-7-57 23-157-34-157-59 0-34 97-39 157H25l-1-190h47c2 12-1 28 3 38 12-26 28-41 61-42" id="aj"/><path fill="#333" d="M115-3C79 11 28 4 28-45v-112H4v-33h27l15-45h31v45h36v33H77v99c-1 23 16 31 38 25v30" id="ak"/><path fill="#333" d="M133-34C117-15 103 5 69 4 32 3 11-16 11-54c-1-60 55-63 116-61 1-26-3-47-28-47-18 1-26 9-28 27l-52-2c7-38 36-58 82-57s74 22 75 68l1 82c-1 14 12 18 25 15v27c-30 8-71 5-69-32zm-48 3c29 0 43-24 42-57-32 0-66-3-65 30 0 17 8 27 23 27" id="al"/><g id="r"><use transform="matrix(0.04938271604938272,0,0,0.04938271604938272,0,0)" xlink:href="#ae"/><use transform="matrix(0.04938271604938272,0,0,0.04938271604938272,4.938271604938272,0)" xlink:href="#af"/><use transform="matrix(0.04938271604938272,0,0,0.04938271604938272,20.74074074074074,0)" xlink:href="#ag"/><use transform="matrix(0.04938271604938272,0,0,0.04938271604938272,31.555555555555557,0)" xlink:href="#ah"/><use transform="matrix(0.04938271604938272,0,0,0.04938271604938272,36.49382716049383,0)" xlink:href="#ai"/><use transform="matrix(0.04938271604938272,0,0,0.04938271604938272,46.370370370370374,0)" xlink:href="#af"/><use transform="matrix(0.04938271604938272,0,0,0.04938271604938272,62.17283950617284,0)" xlink:href="#ai"/><use transform="matrix(0.04938271604938272,0,0,0.04938271604938272,72.0493827160494,0)" xlink:href="#aj"/><use transform="matrix(0.04938271604938272,0,0,0.04938271604938272,82.8641975308642,0)" xlink:href="#ak"/><use transform="matrix(0.04938271604938272,0,0,0.04938271604938272,88.74074074074075,0)" xlink:href="#al"/></g><path fill="#333" d="M238-95c0 69-44 99-111 99C63 4 22-25 22-93v-155h51v151c-1 38 19 59 55 60 90 1 49-130 58-211h52v153" id="am"/><path fill="#333" d="M137-138c1-29-70-34-71-4 15 46 118 7 119 86 1 83-164 76-172 9l43-7c4 19 20 25 44 25 33 8 57-30 24-41C81-84 22-81 20-136c-2-80 154-74 161-7" id="an"/><g id="s"><use transform="matrix(0.04938271604938272,0,0,0.04938271604938272,0,0)" xlink:href="#am"/><use transform="matrix(0.04938271604938272,0,0,0.04938271604938272,12.790123456790125,0)" xlink:href="#an"/><use transform="matrix(0.04938271604938272,0,0,0.04938271604938272,22.66666666666667,0)" xlink:href="#al"/></g><g id="t"><use transform="matrix(0.04938271604938333,0,0,0.04938271604938333,0,0)" xlink:href="#y"/><use transform="matrix(0.04938271604938333,0,0,0.04938271604938333,9.876543209876667,0)" xlink:href="#z"/><use transform="matrix(0.04938271604938333,0,0,0.04938271604938333,13.777777777777949,0)" xlink:href="#A"/><use transform="matrix(0.04938271604938333,0,0,0.04938271604938333,23.654320987654614,0)" xlink:href="#B"/><use transform="matrix(0.04938271604938333,0,0,0.04938271604938333,29.530864197531233,0)" xlink:href="#C"/><use transform="matrix(0.04938271604938333,0,0,0.04938271604938333,39.407407407407895,0)" xlink:href="#B"/><use transform="matrix(0.04938271604938333,0,0,0.04938271604938333,45.28395061728451,0)" xlink:href="#D"/><use transform="matrix(0.04938271604938333,0,0,0.04938271604938333,50.22222222222285,0)" xlink:href="#E"/></g><g id="u"><use transform="matrix(0.04938271604938333,0,0,0.04938271604938333,0,0)" xlink:href="#Z"/><use transform="matrix(0.04938271604938333,0,0,0.04938271604938333,14.765432098765617,0)" xlink:href="#W"/><use transform="matrix(0.04938271604938333,0,0,0.04938271604938333,24.641975308642284,0)" xlink:href="#Z"/><use transform="matrix(0.04938271604938333,0,0,0.04938271604938333,39.4074074074079,0)" xlink:href="#C"/><use transform="matrix(0.04938271604938333,0,0,0.04938271604938333,49.28395061728457,0)" xlink:href="#ac"/><use transform="matrix(0.04938271604938333,0,0,0.04938271604938333,59.16049382716123,0)" xlink:href="#V"/></g><g id="v"><use transform="matrix(0.04938271604938333,0,0,0.04938271604938333,0,0)" xlink:href="#ac"/><use transform="matrix(0.04938271604938333,0,0,0.04938271604938333,9.876543209876667,0)" xlink:href="#W"/><use transform="matrix(0.04938271604938333,0,0,0.04938271604938333,19.753086419753334,0)" xlink:href="#X"/><use transform="matrix(0.04938271604938333,0,0,0.04938271604938333,29.629629629630003,0)" xlink:href="#C"/><use transform="matrix(0.04938271604938333,0,0,0.04938271604938333,39.50617283950667,0)" xlink:href="#F"/><use transform="matrix(0.04938271604938333,0,0,0.04938271604938333,45.38271604938328,0)" xlink:href="#J"/><use transform="matrix(0.04938271604938333,0,0,0.04938271604938333,54.27160493827228,0)" xlink:href="#E"/><use transform="matrix(0.04938271604938333,0,0,0.04938271604938333,64.14814814814895,0)" xlink:href="#J"/><use transform="matrix(0.04938271604938333,0,0,0.04938271604938333,73.03703703703795,0)" xlink:href="#K"/><use transform="matrix(0.04938271604938333,0,0,0.04938271604938333,82.91358024691462,0)" xlink:href="#C"/></g><g id="w"><use transform="matrix(0.04938271604938333,0,0,0.04938271604938333,0,0)" xlink:href="#ad"/><use transform="matrix(0.04938271604938333,0,0,0.04938271604938333,4.9382716049383335,0)" xlink:href="#z"/><use transform="matrix(0.04938271604938333,0,0,0.04938271604938333,8.839506172839616,0)" xlink:href="#B"/><use transform="matrix(0.04938271604938333,0,0,0.04938271604938333,14.716049382716232,0)" xlink:href="#C"/><use transform="matrix(0.04938271604938333,0,0,0.04938271604938333,24.5925925925929,0)" xlink:href="#A"/><use transform="matrix(0.04938271604938333,0,0,0.04938271604938333,34.469135802469566,0)" xlink:href="#E"/><use transform="matrix(0.04938271604938333,0,0,0.04938271604938333,44.34567901234623,0)" xlink:href="#Y"/><use transform="matrix(0.04938271604938333,0,0,0.04938271604938333,53.23456790123523,0)" xlink:href="#C"/><use transform="matrix(0.04938271604938333,0,0,0.04938271604938333,63.111111111111896,0)" xlink:href="#F"/><use transform="matrix(0.04938271604938333,0,0,0.04938271604938333,68.98765432098851,0)" xlink:href="#E"/><use transform="matrix(0.04938271604938333,0,0,0.04938271604938333,78.86419753086518,0)" xlink:href="#X"/><use transform="matrix(0.04938271604938333,0,0,0.04938271604938333,88.74074074074186,0)" xlink:href="#Z"/><use transform="matrix(0.04938271604938333,0,0,0.04938271604938333,103.50617283950746,0)" xlink:href="#z"/><use transform="matrix(0.04938271604938333,0,0,0.04938271604938333,107.40740740740874,0)" xlink:href="#ac"/></g><path fill="#333" d="M84 4C-5 8 30-112 23-190h32v120c0 31 7 50 39 49 72-2 45-101 50-169h31l1 190h-30c-1-10 1-25-2-33-11 22-28 36-60 37" id="ao"/><g id="x"><use transform="matrix(0.04938271604938333,0,0,0.04938271604938333,0,0)" xlink:href="#ao"/><use transform="matrix(0.04938271604938333,0,0,0.04938271604938333,9.876543209876667,0)" xlink:href="#ao"/><use transform="matrix(0.04938271604938333,0,0,0.04938271604938333,19.753086419753334,0)" xlink:href="#z"/><use transform="matrix(0.04938271604938333,0,0,0.04938271604938333,23.654320987654618,0)" xlink:href="#X"/></g></defs></g></svg>